<?xml version="1.0" encoding="UTF-8"?>
<svg version="1.1" xmlns="http://www.w3.org/2000/svg" width="1300" height="1300">
<path d="M0 0 C429 0 858 0 1300 0 C1300 429 1300 858 1300 1300 C871 1300 442 1300 0 1300 C0 871 0 442 0 0 Z " fill="#FEFEFE" transform="translate(0,0)"/>
<path d="M0 0 C3.21784352 2.96233237 5.53284371 6.40500083 8 10 C10.53722741 11.2686137 12.1558021 11.03694525 14.98828125 10.921875 C30.22778712 10.475977 41.86724834 10.82886465 54.00390625 21.1171875 C60.80679678 27.534004 65.13281635 33.8430166 68.3125 42.625 C69.90977823 45.81955646 70.64814927 46.72659384 73.3125 48.8125 C79.76049227 53.92171421 83.14703672 61.11432976 85 69 C86.25350761 82.48249467 83.38051675 92.44825978 75 103 C69.17442311 109.58934147 61.16475716 112.27841428 53 115 C51.11172641 115.10132833 49.22007946 115.14365816 47.32911682 115.15390015 C46.14752487 115.16250061 44.96593292 115.17110107 43.74853516 115.17996216 C42.45036865 115.18422211 41.15220215 115.18848206 39.81469727 115.19287109 C38.4347259 115.20077442 37.05475658 115.20904351 35.67478943 115.21765137 C31.13868174 115.2438604 26.60256491 115.25918497 22.06640625 115.2734375 C20.50186597 115.27879898 18.93732574 115.28417649 17.37278557 115.28956985 C10.85914821 115.31120326 4.3455133 115.32993534 -2.1681509 115.34119225 C-11.48337802 115.35739896 -20.79818587 115.39049111 -30.11325496 115.44759309 C-36.67225968 115.48641834 -43.23115289 115.50584016 -49.79026943 115.51111281 C-53.70207513 115.51475116 -57.61343354 115.52660784 -61.52511406 115.55921555 C-65.21314183 115.58951628 -68.90045695 115.59553102 -72.58858299 115.58383179 C-74.5687164 115.58350935 -76.54880727 115.60783158 -78.52877808 115.63320923 C-90.67897867 115.54946963 -101.2956556 111.68710808 -110 103 C-112.23196738 100.12004208 -114.14776921 97.13361013 -116 94 C-116.66 93.01 -117.32 92.02 -118 91 C-121.59672146 80.38903169 -121.33110424 69.77481838 -116.48046875 59.65234375 C-110.342856 48.65646233 -102.79633678 43.26329464 -91.10375977 39.09130859 C-87.52899128 37.78615454 -86.17712454 37.2656868 -84 34 C-83.47372394 32.09489379 -83.47372394 32.09489379 -83.125 30 C-80.19316275 16.27367108 -73.78839479 4.14396877 -62 -4 C-41.74530939 -15.96994028 -18.55581792 -15.0387021 0 0 Z " fill="#43C2E3" transform="translate(834,410)"/>
<path d="M0 0 C3.65370965 2.96481027 6.89464879 6.36149017 9.54345703 10.25244141 C9.54345703 10.91244141 9.54345703 11.57244141 9.54345703 12.25244141 C10.26299561 12.22625732 10.98253418 12.20007324 11.72387695 12.1730957 C43.63108464 11.16426299 43.63108464 11.16426299 56.54345703 23.25244141 C62.61213137 29.16201192 68.69314673 36.25643884 69.92236328 44.92431641 C70.29093043 47.39319361 70.29093043 47.39319361 72.39111328 48.35400391 C73.10138672 48.65048828 73.81166016 48.94697266 74.54345703 49.25244141 C81.71991125 55.5137773 86.15654468 63.89259172 87.02392578 73.38134766 C87.63900903 85.31772297 85.03487704 94.55114403 77.10595703 103.75244141 C68.92365086 112.14936544 59.58525091 116.29257369 47.7902832 116.7671051 C45.30579726 116.79358307 42.82101979 116.798698 40.33642578 116.78588867 C38.9551197 116.79296561 37.57382137 116.80171799 36.1925354 116.81199646 C32.47755315 116.83429963 28.76300072 116.83159642 25.04797745 116.82267499 C21.93187605 116.81752771 18.81585281 116.82488756 15.69975948 116.83214706 C8.3425747 116.84908483 0.98559765 116.84564164 -6.37158203 116.82885742 C-13.93124658 116.81193304 -21.49033378 116.82778855 -29.04993534 116.8600803 C-35.57094846 116.88686785 -42.09178286 116.89402788 -48.61284542 116.88556522 C-52.49427558 116.88066369 -56.37535857 116.88269979 -60.25674438 116.90335274 C-63.90804062 116.92185579 -67.55851305 116.91557605 -71.20976639 116.89115334 C-73.1682848 116.8838479 -75.12684814 116.90088576 -77.08529663 116.91897583 C-89.08863468 116.79176112 -99.93154498 112.95742976 -108.45654297 104.25244141 C-116.4166812 94.01132789 -119.83357088 84.23363713 -118.45654297 71.25244141 C-115.745149 59.50306752 -108.77681911 51.54657056 -99.45654297 44.25244141 C-95.32772132 41.75794499 -91.00560798 40.38200689 -86.40966797 38.99853516 C-84.26257545 38.33062136 -84.26257545 38.33062136 -82.45654297 36.25244141 C-81.95592228 34.09948306 -81.52966185 31.92894061 -81.14404297 29.75244141 C-78.50454952 16.94697814 -72.1986992 6.11641418 -61.45654297 -1.62255859 C-59.80704851 -2.69120973 -58.14115544 -3.73517129 -56.45654297 -4.74755859 C-55.77591797 -5.15876953 -55.09529297 -5.56998047 -54.39404297 -5.99365234 C-36.9400719 -15.60037432 -15.31052427 -11.48175909 0 0 Z " fill="#3591A6" transform="translate(514.45654296875,408.74755859375)"/>
<path d="M0 0 C5.47753346 3.71832563 10.99927538 8.11365451 14.45288086 13.8527832 C16.0462766 15.99167674 16.0462766 15.99167674 18.66430664 16.140625 C19.63231201 16.09421875 20.60031738 16.0478125 21.59765625 16 C23.20737305 15.95359375 23.20737305 15.95359375 24.84960938 15.90625 C27.08925067 15.80333713 29.32883616 15.69920136 31.56835938 15.59375 C44.01693556 15.23786456 54.3250811 20.02748897 63.68359375 28.1875 C68.34950691 33.03520198 71.88374552 38.45449829 74.0625 44.8125 C75.92706109 49.97838353 79.0314441 52.82920662 82.99609375 56.51953125 C90.63722604 64.29686911 91.46504362 72.87291138 91.4296875 83.30517578 C91.24286673 94.21317346 87.49440396 101.5535599 80.1875 109.75 C71.95174058 116.71437289 62.97473884 119.85180363 52.22505188 119.89717102 C50.46955269 119.90790398 50.46955269 119.90790398 48.67858887 119.91885376 C47.40833862 119.92154266 46.13808838 119.92423157 44.8293457 119.92700195 C43.46701385 119.93327416 42.10468369 119.93992162 40.74235535 119.94691467 C36.2826759 119.96786733 31.82299645 119.97830876 27.36328125 119.98828125 C25.8225471 119.99233208 24.28181313 119.9964491 22.74107933 120.00063133 C15.50037477 120.01966363 8.25968027 120.03389879 1.01895553 120.0422433 C-7.31513891 120.05200885 -15.64896728 120.07831862 -23.98296803 120.11874419 C-30.44095915 120.14898576 -36.89887433 120.16371976 -43.35693485 120.16702431 C-47.20655427 120.16936557 -51.05588883 120.17820471 -54.90543175 120.20348549 C-58.53105013 120.2269129 -62.15619899 120.23094138 -65.7818737 120.22072411 C-67.729939 120.21999951 -69.67798126 120.23898669 -71.62594604 120.25878906 C-84.17729551 120.18520588 -93.77101763 116.70490677 -102.71875 107.8671875 C-111.45572696 98.42680985 -113.30663355 89.59713733 -113.08984375 77.02734375 C-112.66653106 67.3880295 -107.78493346 59.80433236 -101.15234375 53.0625 C-96.4494852 48.77743526 -91.2685704 45.76499865 -85.15234375 43.96875 C-82.42641678 43.12155543 -80.1928128 42.33236703 -77.8125 40.75 C-76.71595236 38.30561254 -76.43737066 36.18632557 -76.14453125 33.52734375 C-74.6993137 21.43852399 -67.06455215 10.37264216 -57.8125 2.75 C-40.20794207 -9.97803405 -18.70605392 -11.2133684 0 0 Z " fill="#43C2E3" transform="translate(1119.8125,405.25)"/>
<path d="M0 0 C3.37434371 2.91699465 6.14195969 5.49959087 8.5546875 9.28515625 C10.29071031 11.39678644 11.12115642 11.9783876 13.84765625 12.45800781 C16.76719341 12.49028515 19.63728115 12.35667298 22.55078125 12.16796875 C37.45125427 11.69165549 48.12889522 15.04203739 59.17578125 25.29296875 C63.94863921 30.29837895 67.41816027 36.2217407 69.86328125 42.66796875 C71.4488144 45.96099914 72.68836615 47.35339775 75.30078125 49.79296875 C81.86410215 55.99300621 86.15404415 63.77188523 86.7265625 72.80078125 C87.04555229 85.34340242 85.08974131 94.44664102 76.48828125 104.04296875 C69.90822182 110.88170374 61.33295527 115.72192595 51.74577808 116.1716032 C50.74571578 116.17327905 49.74565348 116.17495489 48.71528625 116.17668152 C46.98492378 116.18307899 46.98492378 116.18307899 45.21960449 116.18960571 C43.9628894 116.18915253 42.70617432 116.18869934 41.41137695 116.18823242 C40.06727505 116.19122644 38.72317401 116.19462953 37.3790741 116.19841003 C33.73418227 116.20723184 30.08931394 116.20958745 26.44441247 116.21022582 C24.16366028 116.21093763 21.88291403 116.21307447 19.60216331 116.21572304 C11.63491819 116.2249721 3.66768977 116.22905868 -4.29956055 116.22827148 C-11.70840601 116.22767157 -19.11717845 116.23820758 -26.52600545 116.25401515 C-32.89988631 116.26712643 -39.27374343 116.27245384 -45.64763767 116.27181607 C-49.44852028 116.27156204 -53.24933804 116.2743605 -57.05020714 116.28499413 C-60.62974842 116.29473508 -64.2091637 116.29471357 -67.78870964 116.28747749 C-69.71427909 116.28594714 -71.63984868 116.29423731 -73.56539917 116.30291748 C-86.57939556 116.25616894 -96.2244321 114.33653449 -106.26171875 105.66796875 C-107.00421875 104.80171875 -107.74671875 103.93546875 -108.51171875 103.04296875 C-109.26582031 102.16511719 -109.26582031 102.16511719 -110.03515625 101.26953125 C-117.96397137 91.48421308 -118.55544902 81.22292829 -117.51171875 69.04296875 C-115.78609503 58.67484621 -108.60171271 51.23687038 -100.51171875 45.04296875 C-96.13765753 41.99674754 -91.5123699 40.24109387 -86.4296875 38.75390625 C-84.31076671 38.12018943 -84.31076671 38.12018943 -82.51171875 36.04296875 C-81.86811233 33.56508403 -81.29868403 31.1060536 -80.76171875 28.60546875 C-77.21913312 13.41590973 -69.65307655 3.25887207 -56.51171875 -4.95703125 C-38.7467588 -15.56986447 -16.01675296 -12.47961623 0 0 Z " fill="#43C2E3" transform="translate(522.51171875,127.95703125)"/>
<path d="M0 0 C4.32489565 3.30076036 8.29732602 6.76277416 10.91796875 11.57421875 C14.45828443 14.78571254 17.03165668 14.24329471 21.66723633 14.046875 C22.7270874 13.98628906 23.78693848 13.92570312 24.87890625 13.86328125 C39.65171107 13.45911857 50.24206956 16.63311793 61.44140625 26.86328125 C65.62582429 31.63415182 68.43560218 36.65821907 70.87890625 42.48828125 C72.971439 47.40538791 75.6137784 50.30893264 79.51171875 53.890625 C82.63992668 57.08848938 84.57337996 60.83037177 86.44140625 64.86328125 C86.99054688 65.94802734 86.99054688 65.94802734 87.55078125 67.0546875 C88.82711469 71.0796162 88.82457528 74.9131723 88.81640625 79.11328125 C88.81479492 79.9643042 88.81318359 80.81532715 88.81152344 81.69213867 C88.69073021 87.85792241 87.89598283 92.63957895 84.44140625 97.86328125 C83.84328125 98.89453125 83.24515625 99.92578125 82.62890625 100.98828125 C75.85510504 109.89099141 68.1799963 114.68941357 57.44140625 117.86328125 C54.51617908 118.12055016 54.51617908 118.12055016 51.4030304 118.13070679 C50.21586929 118.13923676 49.02870819 118.14776672 47.80557251 118.15655518 C46.51662079 118.1556488 45.22766907 118.15474243 43.8996582 118.15380859 C42.51762023 118.15979829 41.13558558 118.16660485 39.7535553 118.17416382 C36.00947177 118.19179015 32.26547974 118.19651788 28.52135873 118.19779539 C26.17777008 118.19921992 23.83420447 118.2034953 21.49062157 118.20878983 C13.30175686 118.22728179 5.11295715 118.23546184 -3.07592773 118.23388672 C-10.68765167 118.23268683 -18.29909135 118.2537611 -25.91074342 118.28537405 C-32.46216329 118.31160578 -39.01349075 118.32225107 -45.56496269 118.3209759 C-49.47045475 118.32046811 -53.37569428 118.32604838 -57.28113365 118.347332 C-60.95930131 118.36683021 -64.63697866 118.36676089 -68.31516457 118.35229874 C-70.29183988 118.34924177 -72.26851585 118.36580733 -74.24511719 118.38317871 C-86.89900175 118.29481056 -96.37947426 114.82173108 -105.46484375 106.015625 C-113.88276178 97.04483523 -115.9873838 87.71276258 -115.765625 75.69140625 C-115.16077098 64.50731305 -110.28703937 57.00664464 -102.12109375 49.55078125 C-95.67836025 44.36796008 -88.45617279 41.99951165 -80.55859375 39.86328125 C-80.32785156 38.66832031 -80.09710938 37.47335938 -79.859375 36.2421875 C-76.64012991 20.25186932 -71.1943805 8.9761715 -57.62109375 -1.01171875 C-39.62418325 -12.8975288 -17.66545628 -12.00839605 0 0 Z " fill="#43C2E3" transform="translate(194.55859375,126.13671875)"/>
<path d="M0 0 C4.32489565 3.30076036 8.29732602 6.76277416 10.91796875 11.57421875 C14.45828443 14.78571254 17.03165668 14.24329471 21.66723633 14.046875 C22.7270874 13.98628906 23.78693848 13.92570312 24.87890625 13.86328125 C39.65171107 13.45911857 50.24206956 16.63311793 61.44140625 26.86328125 C65.62582429 31.63415182 68.43560218 36.65821907 70.87890625 42.48828125 C72.971439 47.40538791 75.6137784 50.30893264 79.51171875 53.890625 C82.63992668 57.08848938 84.57337996 60.83037177 86.44140625 64.86328125 C86.80363281 65.59289062 87.16585937 66.3225 87.5390625 67.07421875 C90.58289098 76.48241586 89.63662626 87.72075098 85.44140625 96.55078125 C78.7396759 108.07399696 70.13367431 114.10527163 57.44140625 117.86328125 C54.52900314 118.11775684 54.52900314 118.11775684 51.43426514 118.12397766 C50.25407303 118.13106247 49.07388092 118.13814728 47.85792542 118.14544678 C46.57675339 118.14296936 45.29558136 118.14049194 43.97558594 118.13793945 C42.6017784 118.14229056 41.22797329 118.14747504 39.85417175 118.15342712 C36.13287244 118.1667888 32.41167487 118.16739872 28.69035625 118.16486382 C25.57687323 118.1637917 22.4634106 118.1686839 19.34993196 118.17346925 C11.99873462 118.18455569 4.64758837 118.18500739 -2.70361328 118.17895508 C-10.26873205 118.17292198 -17.83366451 118.18521131 -25.3987515 118.20652515 C-31.90854104 118.22418649 -38.41827154 118.23013519 -44.92808414 118.2268874 C-48.80946084 118.22508084 -52.69070478 118.22764727 -56.57205963 118.24160194 C-60.22636177 118.25424889 -63.88037558 118.25217198 -67.53467369 118.23919106 C-69.50078978 118.2357268 -71.46691495 118.24695388 -73.43299866 118.25875854 C-85.93170014 118.18517742 -95.55779589 115.4661652 -104.7578125 106.7890625 C-113.57588279 97.44940579 -115.9981626 88.297072 -115.765625 75.69140625 C-115.24845957 66.12872475 -111.9933998 59.85933814 -105.55859375 52.86328125 C-104.99527344 52.23421875 -104.43195313 51.60515625 -103.8515625 50.95703125 C-98.48775073 45.62827708 -88.35082607 39.86328125 -80.55859375 39.86328125 C-80.33945313 38.69152344 -80.1203125 37.51976562 -79.89453125 36.3125 C-76.72778855 20.2494116 -71.44218758 8.57915351 -57.6328125 -1.2109375 C-39.17870941 -12.62806742 -17.98662573 -12.22671647 0 0 Z " fill="#3591A6" transform="translate(194.55859375,407.13671875)"/>
<path d="M0 0 C2.58005585 2.52516105 4.70694232 4.77940941 6.4765625 7.94921875 C9.38725383 10.62650559 10.07703358 10.55555646 13.890625 10.546875 C15.87315991 10.45843478 17.85500327 10.35339566 19.8359375 10.234375 C33.32911361 9.84753418 43.52064506 12.29524934 54.421875 20.80078125 C61.03599993 27.1401656 65.5217388 34.74122348 68.87890625 43.203125 C70.18983988 45.66408344 71.78626761 47.16318591 73.8359375 49.046875 C80.5735432 55.31851545 84.49133838 63.8496331 85.1640625 72.99609375 C85.37079326 85.89953861 81.80802968 94.64944961 73.1484375 104.2421875 C63.83353082 113.20778518 52.92842983 114.97799787 40.44677734 114.86547852 C39.03267015 114.87063034 37.61856942 114.87792107 36.20448303 114.88716125 C32.40067776 114.90551996 28.59758233 114.89283794 24.79380751 114.87307096 C20.79332774 114.85655973 16.79288855 114.86551425 12.79238892 114.87059021 C6.07957758 114.87509631 -0.63295375 114.85933138 -7.34570312 114.83129883 C-15.08484981 114.79922738 -22.82349254 114.79927759 -30.56267512 114.8165136 C-38.03890089 114.83242423 -45.5149435 114.82561776 -52.99116135 114.80857658 C-56.15920317 114.80173941 -59.3270967 114.80270388 -62.49513626 114.81012154 C-66.23007795 114.81783167 -69.96445182 114.80550618 -73.69929695 114.77827263 C-75.70826598 114.76820042 -77.71730357 114.77752097 -79.72627258 114.78759766 C-92.19176798 114.65720534 -100.95034685 110.96068187 -109.94921875 102.421875 C-114.5604315 97.56590574 -116.95169419 92.55259198 -119.0390625 86.234375 C-119.3690625 85.244375 -119.6990625 84.254375 -120.0390625 83.234375 C-121.01912682 71.93563347 -119.94720009 62.78467452 -112.94921875 53.4453125 C-105.70916704 45.05427821 -99.25305927 41.02919319 -88.83203125 37.34765625 C-85.95550308 36.41416741 -85.95550308 36.41416741 -84.0390625 34.234375 C-83.74985544 32.4932901 -83.53229256 30.74003841 -83.3515625 28.984375 C-81.30264179 15.6663904 -73.93747625 4.39375913 -63.1640625 -3.515625 C-43.45322758 -16.50820237 -18.16242615 -15.72685177 0 0 Z " fill="#43C2E3" transform="translate(508.0390625,1024.765625)"/>
<path d="M0 0 C4.88900991 3.63480312 9.53550469 7.96102121 12.8984375 13.06640625 C13.39085937 13.63101563 13.88328125 14.195625 14.390625 14.77734375 C18.08505758 14.60126096 18.08505758 14.60126096 20.74609375 14.15625 C34.01115353 12.25564321 45.83622522 15.24076384 56.88671875 22.80078125 C64.81439521 29.05882226 70.00510168 36.77189292 73.25390625 46.3125 C74.61870265 49.27190387 76.28298717 50.79688835 78.703125 52.96484375 C86.19884793 60.19501772 89.39967232 68.05987345 89.68334961 78.39819336 C89.798578 90.44027122 86.77443444 98.84490057 78.390625 107.77734375 C68.8591246 116.67473185 58.78073259 118.37303317 46.08764648 118.27905273 C44.67221542 118.28284353 43.25678808 118.2883498 41.84136963 118.29542542 C38.0252033 118.30929717 34.20949202 118.29826978 30.39335132 118.2817142 C26.38438808 118.26778217 22.3754491 118.27433291 18.36647034 118.27784729 C11.63755021 118.2805427 4.90880915 118.26713062 -1.82006836 118.24389648 C-9.58184834 118.2172801 -17.34332932 118.21554558 -25.10513932 118.22728485 C-32.59628951 118.23809077 -40.08733234 118.23185423 -47.57847404 118.21772957 C-50.75569151 118.21199521 -53.93282975 118.21203222 -57.11004829 118.21679497 C-60.85553767 118.2215927 -64.60070261 118.21134847 -68.34613037 118.18984032 C-70.36366734 118.18168792 -72.38124697 118.1880931 -74.39878845 118.19503784 C-86.53374463 118.0963556 -95.51393996 115.27436861 -104.5546875 106.99609375 C-112.64420223 98.45132494 -115.28883298 89.8122171 -115.06274414 78.2722168 C-114.81757165 72.70615458 -114.25302377 67.7630844 -111.609375 62.77734375 C-111.21878906 62.03484375 -110.82820313 61.29234375 -110.42578125 60.52734375 C-104.61464817 50.78176079 -96.29217664 45.30705741 -85.61157227 42.1184082 C-83.45994979 41.4628519 -83.45994979 41.4628519 -80.609375 39.77734375 C-79.14691596 36.48504303 -79.14691596 36.48504303 -78.609375 32.77734375 C-74.89856894 18.63758987 -68.84060151 6.49918118 -55.85693359 -1.27148438 C-37.70889431 -11.30981206 -17.78586916 -11.2739461 0 0 Z " fill="#43C2E3" transform="translate(519.609375,736.22265625)"/>
<path d="M0 0 C10.87820099 8.02007494 10.87820099 8.02007494 14.01953125 13.58203125 C17.49803927 16.76461483 20.2234153 16.20592255 24.79882812 16.05273438 C25.86037109 15.99279297 26.92191406 15.93285156 28.015625 15.87109375 C42.10706277 15.10725881 52.535982 18.81204877 63.140625 28.18359375 C67.31526296 32.92237197 71.01049407 37.40912392 73.390625 43.30859375 C75.14845539 47.56093863 77.54643605 50.48213899 80.6484375 53.84375 C82.42288082 55.77566556 84.08530019 57.74405612 85.703125 59.80859375 C86.16203125 60.38609375 86.6209375 60.96359375 87.09375 61.55859375 C90.91931231 67.89055896 91.98438727 73.85537093 91.890625 81.18359375 C91.88232666 82.02067871 91.87402832 82.85776367 91.86547852 83.72021484 C91.57604613 94.31076204 87.88397182 102.20290347 80.453125 109.80859375 C72.31700665 116.30047912 64.39817096 119.94721826 53.90673828 119.92211914 C52.84609161 119.92204361 51.78544495 119.92196808 50.69265747 119.92189026 C49.56431488 119.91672897 48.43597229 119.91156769 47.2734375 119.90625 C45.52158646 119.90412758 45.52158646 119.90412758 43.73434448 119.90196228 C40.01557826 119.89637873 36.29687293 119.88382919 32.578125 119.87109375 C30.0520842 119.86607663 27.52604246 119.86151409 25 119.85742188 C18.81768767 119.84641468 12.63541069 119.82969288 6.453125 119.80859375 C8.09740711 115.48438406 10.28024796 111.85711109 12.890625 108.05859375 C13.78366484 106.74033647 14.67554456 105.42129272 15.56640625 104.1015625 C16.03385254 103.40981934 16.50129883 102.71807617 16.98291016 102.00537109 C21.22665895 95.66441266 25.31937685 89.22120306 29.453125 82.80859375 C9.653125 82.31359375 9.653125 82.31359375 -10.546875 81.80859375 C-6.64716594 70.50739606 -2.64022465 59.29711532 1.7421875 48.17578125 C4.40225152 41.4204984 6.91754055 34.6113813 9.453125 27.80859375 C-1.766875 27.80859375 -12.986875 27.80859375 -24.546875 27.80859375 C-25.536875 31.10859375 -26.526875 34.40859375 -27.546875 37.80859375 C-28.51793633 40.97813793 -29.49533699 44.14472148 -30.484375 47.30859375 C-30.84305664 48.47455078 -30.84305664 48.47455078 -31.20898438 49.6640625 C-32.46790423 53.68330531 -33.83917695 57.60477689 -35.44458008 61.49951172 C-37.4395715 66.45016541 -39.15364761 71.45363813 -40.78125 76.53515625 C-41.06413879 77.40884857 -41.34702759 78.28254089 -41.63848877 79.18270874 C-42.52785192 81.93197145 -43.41244767 84.68273975 -44.296875 87.43359375 C-44.90463107 89.31520654 -45.51270128 91.19671789 -46.12109375 93.078125 C-47.60056727 97.65360849 -49.07356222 102.23110461 -50.546875 106.80859375 C-38.996875 106.80859375 -27.446875 106.80859375 -15.546875 106.80859375 C-16.536875 111.09859375 -17.526875 115.38859375 -18.546875 119.80859375 C-26.57108695 119.89940884 -34.59489108 119.97260314 -42.61948109 120.01584244 C-46.34669592 120.03660806 -50.07353719 120.06471986 -53.80053711 120.11035156 C-57.40564772 120.15420845 -61.01040185 120.17781347 -64.6157589 120.18810272 C-65.98273 120.19542347 -67.34968433 120.20971665 -68.71650124 120.23151398 C-82.49031232 120.44218852 -92.32684914 117.46231303 -102.41796875 108.06640625 C-110.36772044 99.82601848 -113.32603327 90.34987641 -113.13427734 79.10351562 C-112.57780246 68.5612765 -108.36821577 60.55248129 -101.0703125 53 C-95.01668088 47.74289885 -88.02666132 44.59435973 -80.32421875 42.546875 C-78.16985007 41.84496633 -78.16985007 41.84496633 -76.546875 38.80859375 C-76.24196105 37.00451955 -75.99972228 35.18947469 -75.796875 33.37109375 C-73.69870517 20.17805619 -66.24307186 9.81404266 -55.80859375 1.671875 C-50.01365615 -2.23786366 -44.33699642 -4.61793783 -37.546875 -6.19140625 C-36.92683594 -6.37445313 -36.30679687 -6.5575 -35.66796875 -6.74609375 C-23.45576386 -9.30998207 -10.38306247 -6.71549686 0 0 Z " fill="#44C2E2" transform="translate(1119.546875,113.19140625)"/>
<path d="M0 0 C4.82942805 3.70956067 8.92585301 8.6755585 10.88671875 14.44921875 C11.27908991 19.71716493 11.17481334 24.80707958 10.26171875 30.01171875 C9.56734557 32.70115894 9.56734557 32.70115894 11.88671875 35.44921875 C14.12764978 36.71778984 14.12764978 36.71778984 16.69921875 37.82421875 C20.9094435 39.84754978 23.82492735 41.84711122 26.88671875 45.44921875 C27.58796875 46.23296875 28.28921875 47.01671875 29.01171875 47.82421875 C33.77634796 54.49469965 34.89318988 60.34026386 33.88671875 68.44921875 C31.83270911 76.04171868 27.11767649 82.7691587 20.45703125 86.98828125 C12.49363096 91.12731301 5.51138996 92.75015468 -3.37817383 92.72387695 C-4.73086617 92.73154335 -4.73086617 92.73154335 -6.11088562 92.73936462 C-9.07659643 92.75320497 -12.04207333 92.75230779 -15.0078125 92.75 C-17.08135564 92.75389045 -19.154898 92.75822584 -21.22843933 92.76298523 C-25.57004379 92.77043586 -29.91156693 92.77016489 -34.25317383 92.76489258 C-39.79771869 92.75910464 -45.34192878 92.77601842 -50.88641834 92.79923725 C-55.16828841 92.8140208 -59.45007876 92.81483992 -63.73196983 92.81172752 C-65.77516021 92.81223858 -67.81835531 92.81743554 -69.86152077 92.82753944 C-72.72796539 92.83997403 -75.59376953 92.83306992 -78.46020508 92.8215332 C-79.29222443 92.82917694 -80.12424377 92.83682068 -80.98147583 92.84469604 C-91.5619015 92.751293 -100.11137988 89.34250856 -108.11328125 82.44921875 C-114.24057009 75.83404275 -115.54320903 69.16930724 -115.359375 60.41015625 C-114.85148 54.29929255 -112.96359209 50.35817191 -108.98828125 45.76171875 C-105.40760685 41.30557383 -105.6286394 37.24420076 -105.4296875 31.69921875 C-104.70920287 24.2986853 -100.65492589 18.04932676 -95.27734375 13.05078125 C-84.96340619 5.41772277 -75.62789553 3.84525869 -63.11328125 4.44921875 C-60.37189972 4.95202397 -57.80324956 5.69413993 -55.11328125 6.44921875 C-51.65623629 7.2826769 -51.65623629 7.2826769 -48.11328125 6.44921875 C-45.73612055 4.60177526 -43.61604738 2.58136527 -41.44921875 0.4921875 C-29.38238062 -10.0612512 -12.58367752 -8.23254344 0 0 Z " fill="#3591A6" transform="translate(267.11328125,761.55078125)"/>
<path d="M0 0 C6.539722 3.80565752 10.74502141 8.52890107 13.86328125 15.359375 C15.34775635 22.10698908 14.5014126 28.71112661 13.55078125 35.484375 C13.55078125 36.144375 13.55078125 36.804375 13.55078125 37.484375 C14.25203125 37.7525 14.95328125 38.020625 15.67578125 38.296875 C24.26004012 41.84254714 31.34433405 46.23843067 35.6640625 54.734375 C38.07825157 62.22155168 37.80347038 70.71893926 34.61328125 77.921875 C29.43270751 86.66773123 22.09158309 91.49948971 12.55078125 94.484375 C9.15000698 94.99627655 5.82927789 95.03343439 2.39453125 95.00195312 C1.43377686 95.0089624 0.47302246 95.01597168 -0.5168457 95.02319336 C-3.6612728 95.04065542 -6.80478409 95.02919243 -9.94921875 95.015625 C-12.15299653 95.01832329 -14.35677315 95.02220852 -16.56054688 95.02722168 C-21.1667826 95.03310079 -25.77270689 95.02460484 -30.37890625 95.00585938 C-36.263151 94.98307115 -42.14666578 94.99620272 -48.03088379 95.02014923 C-52.57785474 95.03465003 -57.12465456 95.02998156 -61.67163086 95.01963806 C-63.84041431 95.01698261 -66.00921363 95.02019861 -68.17797852 95.02955627 C-71.21672322 95.03979245 -74.25430962 95.02412196 -77.29296875 95.00195312 C-78.17637939 95.01005005 -79.05979004 95.01814697 -79.9699707 95.02648926 C-90.25351131 94.8885213 -97.99447787 90.98233117 -105.30859375 83.88671875 C-111.41886373 77.02939022 -112.20440034 70.22810246 -111.9765625 61.16015625 C-111.12784912 55.24430965 -108.4839732 49.93905983 -103.7734375 46.12890625 C-101.70931295 43.56549494 -102.1096995 41.15417103 -102.07421875 37.921875 C-101.56804364 28.47976244 -98.44843131 21.4630866 -91.46875 15.015625 C-81.90310034 7.7627533 -71.26282127 5.48079226 -59.44921875 6.484375 C-57.03905852 7.14499121 -54.77625623 7.96939641 -52.4453125 8.86328125 C-49.12509795 9.89638128 -46.71798794 9.50987122 -43.44921875 8.484375 C-42.05648985 6.86701241 -40.7298436 5.1918748 -39.44921875 3.484375 C-27.6358129 -5.47136032 -13.24272589 -6.06880225 0 0 Z " fill="#3591A6" transform="translate(882.44921875,162.515625)"/>
<path d="M0 0 C4.17313493 2.62367141 7.89185524 5.21386436 10.51953125 9.44921875 C12.50353008 12.52417558 13.81744748 14.11920867 17 16 C21.75392103 16.62717919 26.5046895 16.31929844 31.28222656 16.12255859 C42.66876213 15.70873477 51.1404432 18.57355286 59.98828125 26.03125 C63.38847538 29.35881863 66.53866838 32.91624722 69 37 C69 37.99 69 38.98 69 40 C67.82244141 40.43699219 67.82244141 40.43699219 66.62109375 40.8828125 C60.74161974 43.17688948 56.04823013 45.11039818 51.890625 49.9609375 C49.25704348 51.40831908 47.17795685 50.80835034 44.30126953 50.34130859 C28.80221658 48.04259482 15.26022334 49.93660121 2.125 58.6875 C-6.30965852 65.24369745 -11.38249866 73.67704529 -14 84 C-14.30603474 86.61995594 -14.49007694 89.22823106 -14.66796875 91.859375 C-15.16207464 95.04490476 -16.85025195 96.66598783 -19 99 C-21.85246369 103.81932494 -23.48827074 108.6090277 -25 114 C-31.06484815 114.04980923 -37.12957458 114.08591175 -43.19458008 114.10986328 C-45.25352048 114.11985892 -47.31244691 114.13345992 -49.37133789 114.15087891 C-52.3478543 114.17541262 -55.32418141 114.18654775 -58.30078125 114.1953125 C-59.2064534 114.20563507 -60.11212555 114.21595764 -61.04524231 114.22659302 C-74.41228253 114.22888741 -84.93516858 111.57783792 -94.8828125 102.421875 C-102.34310673 93.88795909 -104.38713112 84.57690317 -104.2734375 73.60546875 C-103.59822102 64.7022571 -99.27069527 57.2475134 -93 51 C-87.4224252 46.65438575 -81.735557 43.46870952 -74.875 41.703125 C-72.53051763 40.82394411 -71.48994416 40.02079253 -70 38 C-69.3857408 35.37786458 -69.3857408 35.37786458 -69.125 32.4375 C-67.2213225 19.78185201 -59.98199166 10.66592967 -50.1875 2.6875 C-48.81781761 1.75217214 -47.4197401 0.8574416 -46 0 C-45.19820312 -0.48597656 -44.39640625 -0.97195312 -43.5703125 -1.47265625 C-30.45196442 -8.14331767 -12.70318945 -7.19908154 0 0 Z " fill="#44C2E3" transform="translate(784,109)"/>
<path d="M0 0 C2.7236338 2.12001766 4.46872802 4.24853775 6.47485352 7.02978516 C9.31435522 10.86206832 11.59192295 13.81418175 16.47119141 14.73925781 C21.47888263 15.04030793 26.37231779 14.75688954 31.3671875 14.37890625 C40.60297588 13.8135151 47.79248437 17.63168374 54.890625 23.25 C58.64785835 26.65862407 62.07166742 30.02156363 64.890625 34.25 C64.890625 35.24 64.890625 36.23 64.890625 37.25 C63.93800781 37.69730469 62.98539063 38.14460937 62.00390625 38.60546875 C60.73671515 39.2155978 59.46980272 39.82630585 58.203125 40.4375 C57.57728516 40.72947266 56.95144531 41.02144531 56.30664062 41.32226562 C52.94471781 42.9592228 50.90054219 44.23939784 48.2890625 47.03125 C45.890625 49.25 45.890625 49.25 43.12890625 49.30078125 C42.16339844 49.05714844 41.19789063 48.81351563 40.203125 48.5625 C25.66140503 45.4476885 11.85041544 48.11152054 -0.796875 56 C-8.84209027 61.68982596 -14.10018694 68.8403167 -17.109375 78.25 C-17.71432301 81.86417659 -18.15615242 85.4341753 -18.45703125 89.0859375 C-19.22414839 92.80668532 -20.60878036 94.44388158 -23.109375 97.25 C-24.34754401 99.22836348 -24.34754401 99.22836348 -25.296875 101.1875 C-25.62042969 101.81527344 -25.94398438 102.44304687 -26.27734375 103.08984375 C-27.30937719 105.76925452 -27.66677108 108.41950573 -28.109375 111.25 C-35.20769311 111.32640051 -42.30590418 111.37874659 -49.40454102 111.41479492 C-51.8166907 111.42983145 -54.22881328 111.45026599 -56.64086914 111.47631836 C-60.11872064 111.51292732 -63.59620894 111.52977829 -67.07421875 111.54296875 C-68.67788551 111.56619453 -68.67788551 111.56619453 -70.31394958 111.58988953 C-81.92249573 111.59246741 -89.6567156 108.37344208 -98.0234375 100.43359375 C-102.6327572 95.57909747 -105.02277661 90.56588653 -107.109375 84.25 C-107.439375 83.26 -107.769375 82.27 -108.109375 81.25 C-109.10456077 69.74794908 -106.46522286 60.20047223 -99.109375 51.25 C-93.08553334 45.15967002 -86.59426126 41.93029321 -78.53515625 39.21484375 C-75.97901175 38.38344093 -75.97901175 38.38344093 -74.109375 36.25 C-73.467219 33.75142938 -72.89744162 31.27055339 -72.359375 28.75 C-70.73117383 21.72038087 -68.40586623 16.12525441 -64.109375 10.25 C-63.366875 9.198125 -62.624375 8.14625 -61.859375 7.0625 C-55.0320428 0.08000116 -47.41601959 -3.98476694 -38.109375 -6.75 C-37.46742188 -6.94335938 -36.82546875 -7.13671875 -36.1640625 -7.3359375 C-23.42147523 -9.90383532 -10.93114904 -6.50263225 0 0 Z " fill="#44C2E3" transform="translate(169.109375,707.75)"/>
<path d="M0 0 C0.70431152 0.19867676 1.40862305 0.39735352 2.13427734 0.60205078 C29.081985 8.40070453 51.2255757 23.83155042 65.08984375 48.6328125 C73.90991914 65.20667594 73.90991914 65.20667594 72.5625 72.3046875 C72.376875 72.86414062 72.19125 73.42359375 72 74 C71.26394531 73.66226562 70.52789063 73.32453125 69.76953125 72.9765625 C68.79371094 72.53054688 67.81789063 72.08453125 66.8125 71.625 C65.84957031 71.18414063 64.88664062 70.74328125 63.89453125 70.2890625 C62.93933594 69.86367187 61.98414063 69.43828125 61 69 C60.27167969 68.62359375 59.54335937 68.2471875 58.79296875 67.859375 C47.49660139 64.38356966 31.55498919 65.81927188 21 71 C18.24888055 72.78653869 15.65996755 74.63054931 13.12109375 76.70703125 C11 78 11 78 9.0078125 77.875 C5.8180385 76.48490394 3.02376078 74.57207916 0.12109375 72.66796875 C-8.69770219 67.95504526 -16.5429413 66.353393 -26.5 66.5 C-27.55058594 66.48453125 -28.60117188 66.4690625 -29.68359375 66.453125 C-39.30935096 66.50071836 -47.78101284 68.70744352 -55.4375 74.75 C-59.58193277 78 -59.58193277 78 -64 78 C-65.68359375 76.86328125 -65.68359375 76.86328125 -67.4375 75.3125 C-79.48544608 66.07354682 -92.3873313 65.77179891 -107 67 C-113.85466107 68.03746222 -119.14647291 70.38824924 -125 74 C-125.66 74 -126.32 74 -127 74 C-124.63443744 58.22958296 -117.93029108 45.39718444 -108 33 C-107.52175781 32.36964844 -107.04351563 31.73929688 -106.55078125 31.08984375 C-92.90299837 13.92257531 -70.88226712 3.72634555 -50 -1 C-49.07316406 -1.226875 -48.14632813 -1.45375 -47.19140625 -1.6875 C-32.00850649 -4.86070401 -14.88671134 -4.20125506 0 0 Z " fill="#3691A6" transform="translate(1136,1021)"/>
<path d="M0 0 C0.66 0 1.32 0 2 0 C3.55469477 2.07189403 4.97433384 4.13859199 6.375 6.3125 C6.81416748 6.98474609 7.25333496 7.65699219 7.70581055 8.34960938 C9.14519778 10.56133226 10.5726594 12.78048775 12 15 C12.4729248 15.72751465 12.94584961 16.4550293 13.43310547 17.20458984 C24.52051856 34.27054691 34.65418732 51.82051222 43.5625 70.125 C44.05105469 71.11902832 44.53960938 72.11305664 45.04296875 73.13720703 C52.50534889 88.78892403 55.70662782 102.77883094 50.328125 119.671875 C45.03182823 132.9437716 35.63832177 142.03044468 23.12109375 148.484375 C11.12045928 153.62544103 -4.85280046 154.58147976 -17.3125 150.375 C-18.90056377 149.63594939 -20.46582605 148.84525301 -22 148 C-22.81855469 147.59910156 -23.63710938 147.19820312 -24.48046875 146.78515625 C-37.1030275 140.03355506 -44.74392453 129.97490327 -50 117 C-51.25328059 112.6882798 -51.25949932 108.52515739 -51.3125 104.0625 C-51.34150391 103.28326172 -51.37050781 102.50402344 -51.40039062 101.70117188 C-51.52376127 89.96198018 -46.58569663 79.34702044 -41.5 69 C-40.97809082 67.92693604 -40.45618164 66.85387207 -39.91845703 65.74829102 C-14.82919608 14.82919608 -14.82919608 14.82919608 0 0 Z " fill="#43C2E3" transform="translate(799,1035)"/>
<path d="M0 0 C0.97211426 0.00161133 1.94422852 0.00322266 2.94580078 0.00488281 C10.32818356 0.13073991 16.51924293 1.21858288 23.25 4.375 C23.95640625 4.65214844 24.6628125 4.92929687 25.390625 5.21484375 C31.69603379 7.90829593 36.41721664 12.62131293 41.25 17.375 C41.90355469 18.01566406 42.55710937 18.65632812 43.23046875 19.31640625 C54.84564095 31.59823292 57.01128156 46.05279065 56.6875 62.2578125 C55.95472333 77.10111987 48.67435133 89.36922988 38.125 99.625 C24.72547704 110.85661391 8.38565621 114.63523212 -8.75 113.375 C-21.85674605 111.35598906 -32.5596161 104.68088244 -41.75 95.375 C-42.31332031 94.83359375 -42.87664063 94.2921875 -43.45703125 93.734375 C-54.69192153 81.99554505 -57.39279974 66.60645021 -57.0625 51.04296875 C-56.77082797 44.99928133 -55.29850055 39.85308529 -52.75 34.375 C-52.32589844 33.44429687 -51.90179687 32.51359375 -51.46484375 31.5546875 C-44.66366661 17.95233322 -33.2162933 7.34631578 -18.75 2.375 C-12.41858514 0.47282872 -6.59764008 -0.01137328 0 0 Z " fill="#E5C705" transform="translate(799.75,742.625)"/>
<path d="M0 0 C0 3.81142066 -1.06199018 4.57344599 -3.4375 7.5 C-12.33660823 19.44977943 -18.03805669 33.45211267 -21 48 C-21.22300781 49.07378906 -21.44601563 50.14757813 -21.67578125 51.25390625 C-26.54185283 78.23246638 -19.47331528 105.99440746 -5 129 C-2.2423148 132.92761226 0.73468393 136.48682166 4 140 C4.84304687 140.92296875 5.68609375 141.8459375 6.5546875 142.796875 C24.11448354 161.22193635 47.04603913 171.38895167 72 175 C56.39912134 187.59789262 33.92007355 187.26269911 15 186 C-8.14725702 183.31053346 -29.86227208 170.27707634 -44.8125 152.625 C-53.1393244 141.84282995 -58.83685429 130.87772728 -63 118 C-63.34160156 117.01257812 -63.68320313 116.02515625 -64.03515625 115.0078125 C-70.68017361 92.19840407 -65.86420139 66.53708909 -55.37109375 45.77734375 C-51.34197317 38.53240535 -46.48163702 32.20264513 -41 26 C-40.18982422 25.06414062 -40.18982422 25.06414062 -39.36328125 24.109375 C-28.95411259 12.88739972 -14.41564049 4.8052135 0 0 Z " fill="#E7C22A" transform="translate(171,1017)"/>
<path d="M0 0 C14.65186513 12.40133865 22.37361891 27.17645127 24.75 46.1875 C-18.48 46.1875 -61.71 46.1875 -106.25 46.1875 C-106.25 29.89271359 -98.4600956 15.79243817 -87.25 4.1875 C-62.23643735 -17.55168265 -26.90851945 -20.60119526 0 0 Z " fill="#E5C705" transform="translate(1150.25,808.8125)"/>
<path d="M0 0 C11.22 0 22.44 0 34 0 C33.27486948 3.62565261 32.53950258 6.50595364 31.25 9.89453125 C30.89284912 10.83941406 30.53569824 11.78429687 30.16772461 12.7578125 C29.78237549 13.76585937 29.39702637 14.77390625 29 15.8125 C28.1886857 17.954383 27.37749153 20.09631151 26.56640625 22.23828125 C25.93629639 23.89657959 25.93629639 23.89657959 25.29345703 25.58837891 C23.15852213 31.21948127 21.04933801 36.86020555 18.9375 42.5 C17.638125 45.965 16.33875 49.43 15 53 C34.8 53.495 34.8 53.495 55 54 C51.91819156 59.54725518 48.92149485 64.81883968 45.37109375 70.0234375 C44.49022148 71.33006591 43.60986907 72.63704492 42.72998047 73.94433594 C42.27983582 74.61154663 41.82969116 75.27875732 41.36590576 75.96618652 C39.10726782 79.32926501 36.8835401 82.71511399 34.66015625 86.1015625 C33.9834362 87.13142776 33.9834362 87.13142776 33.29304504 88.18209839 C31.88238239 90.3294168 30.47242436 92.47719677 29.0625 94.625 C28.06195965 96.148294 27.06138949 97.6715684 26.06079102 99.19482422 C21.20010856 106.59569754 16.34359476 113.99929332 11.4921875 121.40625 C11.06008469 122.06595795 10.62798187 122.72566589 10.18278503 123.40536499 C8.15961591 126.49453604 6.13704478 129.5840962 4.11547852 132.67431641 C0.10486607 138.80175317 -3.92352634 144.91614963 -8 151 C-9.20620232 147.38139304 -8.68654039 146.07723311 -7.6640625 142.4453125 C-7.34574463 141.28999023 -7.02742676 140.13466797 -6.69946289 138.94433594 C-6.34489014 137.68395508 -5.99031738 136.42357422 -5.625 135.125 C-4.87999855 132.42629566 -4.14362293 129.72529783 -3.41015625 127.0234375 C-3.21620773 126.31006226 -3.02225922 125.59668701 -2.82243347 124.86169434 C0.04376441 114.23439451 2.56013112 103.51803179 5.11669922 92.81298828 C5.30215805 92.03998383 5.48761688 91.26697937 5.67869568 90.47055054 C6.0277416 89.01474386 6.37458708 87.55840727 6.71888733 86.10147095 C7.8879961 81.22400779 7.8879961 81.22400779 9 79 C-2.55 79 -14.1 79 -26 79 C-24.6584587 72.29229352 -23.24176624 66.14622378 -21.06640625 59.73828125 C-20.64850075 58.48593941 -20.64850075 58.48593941 -20.22215271 57.20829773 C-19.63752891 55.46041745 -19.05002027 53.71349959 -18.4597168 51.9675293 C-17.56189499 49.31070967 -16.67379725 46.65078802 -15.78710938 43.99023438 C-15.2141083 42.28105993 -14.64055936 40.57206904 -14.06640625 38.86328125 C-13.80380508 38.0777034 -13.54120392 37.29212555 -13.27064514 36.48274231 C-12.09771608 33.02297307 -10.87704311 29.62268127 -9.42016602 26.27148438 C-8.20180626 23.46487947 -7.15976253 20.69835781 -6.2109375 17.79296875 C-5.75847656 16.41915039 -5.75847656 16.41915039 -5.296875 15.01757812 C-4.99265625 14.08365234 -4.6884375 13.14972656 -4.375 12.1875 C-3.75913718 10.30555557 -3.14201254 8.42402345 -2.5234375 6.54296875 C-2.25450684 5.71821045 -1.98557617 4.89345215 -1.70849609 4.04370117 C-1 2 -1 2 0 0 Z " fill="#E4C707" transform="translate(1095,141)"/>
<path d="M0 0 C3.96 0 7.92 0 12 0 C12.00586624 1.20554535 12.01173248 2.4110907 12.01777649 3.65316772 C12.07510657 15.04047857 12.14792191 26.42760034 12.23571491 37.81471825 C12.2803524 43.66829412 12.31962321 49.52180146 12.34643555 55.37548828 C12.37253443 61.02959887 12.41298359 66.68344477 12.46318626 72.3373909 C12.47981046 74.48939332 12.49135232 76.64144147 12.49761391 78.79349899 C12.50730338 81.81882925 12.53542067 84.84348907 12.56762695 87.86865234 C12.56619186 88.74907196 12.56475677 89.62949158 12.5632782 90.53659058 C12.69507325 99.34875711 14.5416173 108.55870297 21 115 C26.40905519 118.90040714 31.53986265 119.00376636 38 118 C43.34138906 115.71083326 45.55025142 111.36049547 47.875 106.25 C49.71882146 101.45845103 50.55798923 97.18456043 50.56640625 92.05859375 C51 90 51 90 52.8671875 88.24609375 C55.51017973 86.70192796 56.98521847 86.53618746 60 87 C62.43199873 88.73463042 62.94850011 89.70559231 63.46875 92.6796875 C63.58347204 104.41001573 60.31447641 115.42060155 52 124 C45.21772657 130.09444853 37.82332587 132.64504119 28.734375 132.34375 C20.71545596 131.33565732 14.34455328 126.89704929 9 121 C2.08624613 111.69302363 -0.47678248 102.06568652 -0.34057617 90.59326172 C-0.34101425 89.60669083 -0.34145233 88.62011993 -0.34190369 87.60365295 C-0.33983223 84.37878859 -0.31657917 81.15445979 -0.29296875 77.9296875 C-0.28736695 75.6795378 -0.28309961 73.42938442 -0.28010559 71.17922974 C-0.26870285 65.28391247 -0.23927519 59.38882024 -0.20599365 53.49359131 C-0.17519393 47.46711266 -0.16157915 41.44059732 -0.14648438 35.4140625 C-0.11440097 23.60927664 -0.06326024 11.8046571 0 0 Z " fill="#3792A7" transform="translate(1103,1098)"/>
<path d="M0 0 C0.65411267 -0.00467997 1.30822535 -0.00935994 1.98215961 -0.01418173 C4.16629333 -0.02611429 6.34979756 -0.01668186 8.53393555 -0.00723267 C10.10289882 -0.01129916 11.67185922 -0.01664148 13.24081421 -0.02316284 C17.49698795 -0.03683305 21.75294341 -0.03153905 26.00912094 -0.02202559 C30.46441992 -0.01442746 34.91970028 -0.02147502 39.375 -0.02618408 C46.85672357 -0.03164119 54.33835828 -0.02445121 61.82006836 -0.01016235 C70.46851249 0.00616409 79.11674445 0.00087555 87.76518345 -0.01564157 C95.19207099 -0.02925772 102.61889468 -0.03117547 110.04579067 -0.02332556 C114.48089005 -0.01864976 118.91588971 -0.01802165 123.35098267 -0.02793503 C127.5207067 -0.0366043 131.69015732 -0.0305836 135.85985184 -0.01325226 C137.3896807 -0.00928719 138.91953258 -0.01042182 140.44935226 -0.01704025 C142.53864781 -0.02524542 144.62706869 -0.01494786 146.71630859 0 C148.46949654 0.00169662 148.46949654 0.00169662 150.25810242 0.00342751 C153.7307668 0.42632757 155.63395405 1.19897374 158.3581543 3.38095093 C158.84107098 6.76136774 159.17601101 9.14417716 157.23731995 12.07589149 C154.43730305 14.02047177 152.17773687 13.75871736 148.79150391 13.76190186 C147.78628016 13.76892181 147.78628016 13.76892181 146.76074886 13.77608359 C144.51046519 13.78806981 142.26078646 13.77856269 140.01049805 13.76913452 C138.39917647 13.77319863 136.78785768 13.77853961 135.17654419 13.7850647 C130.79642555 13.79876329 126.41651845 13.79342921 122.03639603 13.78392744 C117.45736359 13.77634399 112.87834954 13.78337279 108.29931641 13.78808594 C100.60893494 13.79354733 92.91863984 13.78634183 85.22827148 13.77206421 C76.33103101 13.75573695 67.43399676 13.76102519 58.53676128 13.77754343 C50.90442734 13.79114738 43.27215557 13.7930833 35.63981342 13.78522742 C31.07843456 13.78054489 26.5171527 13.77994193 21.95578003 13.78983688 C17.66789956 13.79848844 13.38028555 13.79251798 9.09243393 13.77515411 C7.51661497 13.77117955 5.94077367 13.77233984 4.36496353 13.77894211 C2.21793883 13.78710981 0.07177421 13.77689517 -2.07519531 13.76190186 C-3.27792587 13.76077078 -4.48065643 13.7596397 -5.71983337 13.75847435 C-8.6418457 13.38095093 -8.6418457 13.38095093 -10.52101135 12.07589149 C-12.45970242 9.14417716 -12.12476239 6.76136774 -11.6418457 3.38095093 C-7.83470282 0.33157931 -4.78877771 0.00463425 0 0 Z " fill="#4AC4E4" transform="translate(408.641845703125,1207.6190490722656)"/>
<path d="M0 0 C0.99804007 -0.00573832 0.99804007 -0.00573832 2.01624256 -0.01159257 C4.25025255 -0.02192801 6.48400579 -0.01792947 8.71803284 -0.01396179 C10.31787861 -0.01830797 11.91772229 -0.02349081 13.51756287 -0.02944946 C17.86671203 -0.04286085 22.2157744 -0.04341576 26.56494021 -0.04088616 C30.1933001 -0.0398179 33.82164233 -0.04469611 37.44999844 -0.04949158 C46.00859491 -0.06059417 54.56714749 -0.06101996 63.12574768 -0.05497742 C71.96047587 -0.04893592 80.79504487 -0.06125137 89.6297459 -0.08254749 C97.21028359 -0.10014978 104.79077055 -0.10616702 112.37132794 -0.10290974 C116.90089021 -0.10109455 121.43033893 -0.10375655 125.95988274 -0.11762428 C130.2190249 -0.13017575 134.4779185 -0.12828409 138.73705673 -0.11521339 C140.3011731 -0.11284219 141.86530682 -0.11560172 143.42940331 -0.12383652 C145.56292655 -0.13426023 147.69560894 -0.12623961 149.82910156 -0.11352539 C151.6207532 -0.113777 151.6207532 -0.113777 153.44859982 -0.1140337 C156.76134332 0.29573959 158.16972302 0.8774378 160.4780426 3.26069641 C160.92678978 6.33781994 161.12929842 8.28795767 159.36390781 10.92480755 C156.55258972 12.91625875 154.28743068 12.63539188 150.86669922 12.63491821 C150.19176094 12.63889262 149.51682265 12.64286703 148.8214317 12.64696187 C146.55498168 12.65660292 144.28915306 12.64475646 142.02272034 12.63301086 C140.3999254 12.63543822 138.77713196 12.63915699 137.15434265 12.64407349 C132.74329008 12.65349311 128.33245897 12.64404851 123.92142367 12.63074136 C119.31123229 12.61944268 114.70105207 12.62353309 110.09085083 12.62548828 C102.34919099 12.62637167 94.60761865 12.61528075 86.86598206 12.59687805 C77.90627193 12.57570227 68.94668995 12.57220186 59.98695987 12.57844001 C51.37829353 12.5841276 42.76967247 12.57849565 34.16101265 12.56726646 C30.49237801 12.5626132 26.823771 12.56174975 23.1551342 12.56385231 C18.83857447 12.56573106 14.52214583 12.55766331 10.205616 12.54179192 C8.61809011 12.53753676 7.03055094 12.53670674 5.44302177 12.53948212 C3.28266975 12.5426869 1.12271364 12.53366582 -1.03759766 12.52139282 C-2.24862435 12.51933995 -3.45965105 12.51728708 -4.70737553 12.515172 C-7.5219574 12.26069641 -7.5219574 12.26069641 -9.5219574 10.26069641 C-9.82273865 8.38569641 -9.82273865 8.38569641 -9.8344574 6.26069641 C-9.85121521 5.55944641 -9.86797302 4.85819641 -9.88523865 4.13569641 C-9.76535583 3.51694641 -9.64547302 2.89819641 -9.5219574 2.26069641 C-5.91463831 -0.14418298 -4.2910163 0.00737728 0 0 Z " fill="#43C2E3" transform="translate(415.52195739746094,1158.7393035888672)"/>
<path d="M0 0 C-1.42701475 3.25967835 -3.19448734 5.35749802 -5.6875 7.875 C-12.14269826 15.01092826 -16.52507171 23.58665877 -18.1875 33.0625 C-18.796875 35.72265625 -18.796875 35.72265625 -20 38 C-22.96078399 39.84407211 -25.76941748 40.94668014 -29.08984375 42 C-31.92213418 42.97324342 -33.73353961 44.07760468 -36 46 C-40.56284229 44.14756403 -41.97670854 41.53205313 -44.0078125 37.1796875 C-46.47839945 29.26213718 -46.42529766 20.0272258 -42.9375 12.4375 C-38.59848854 5.16507234 -32.39527646 -0.95515838 -24.1796875 -3.58203125 C-15.48718622 -5.24887289 -7.65463688 -4.43059085 0 0 Z " fill="#E5C708" transform="translate(450,730)"/>
<path d="M0 0 C-1.36978665 3.04844675 -2.96129018 5.20226664 -5.25 7.625 C-10.08275085 13.09944391 -14.36726184 18.6533916 -15.921875 25.9140625 C-18.45105514 37.39182491 -18.45105514 37.39182491 -23.765625 40.8046875 C-28.51389277 43.36709058 -33.53273105 46 -39 46 C-44.91248473 36.39221231 -46.36591366 28.55972559 -44.58984375 17.4296875 C-42.60728631 9.89334332 -36.99827545 3.53646527 -30.375 -0.4375 C-29.26125 -0.953125 -28.1475 -1.46875 -27 -2 C-26.113125 -2.4125 -25.22625 -2.825 -24.3125 -3.25 C-15.44087032 -5.25867087 -7.91435476 -4.47680673 0 0 Z " fill="#E5C708" transform="translate(450,119)"/>
<path d="M0 0 C1.670625 0.4021875 1.670625 0.4021875 3.375 0.8125 C4.63737731 3.33725462 4.47356404 5.12450466 4.4375 7.9375 C4.42847656 8.84757813 4.41945313 9.75765625 4.41015625 10.6953125 C4.39855469 11.39398437 4.38695312 12.09265625 4.375 12.8125 C5.40625 12.4825 6.4375 12.1525 7.5 11.8125 C10.8898228 10.85868346 13.83548285 10.41028214 17.375 10.8125 C19.3125 11.9375 19.3125 11.9375 20.375 13.8125 C20.625 16.75 20.625 16.75 19.375 19.8125 C16.07112037 21.91030318 12.34536456 23.8125 8.375 23.8125 C8.81972656 24.39257812 9.26445313 24.97265625 9.72265625 25.5703125 C14.375 31.99245444 14.375 31.99245444 14.375 36.3125 C13.375 38.8125 13.375 38.8125 11.375 39.8125 C8.625 40.375 8.625 40.375 5.375 39.8125 C3.01521364 37.3726304 1.17980615 34.67970977 -0.625 31.8125 C-1.223125 32.575625 -1.82125 33.33875 -2.4375 34.125 C-3.159375 35.011875 -3.88125 35.89875 -4.625 36.8125 C-5.07875 37.410625 -5.5325 38.00875 -6 38.625 C-8.54677576 40.48610537 -10.57958145 40.20127684 -13.625 39.8125 C-15.86561155 36.45158267 -16.23166616 35.71249673 -15.625 31.8125 C-14.13527064 29.01990629 -12.42996011 26.4103533 -10.625 23.8125 C-11.32367187 23.63074219 -12.02234375 23.44898438 -12.7421875 23.26171875 C-13.65226563 23.01035156 -14.56234375 22.75898437 -15.5 22.5 C-16.40492188 22.25636719 -17.30984375 22.01273438 -18.2421875 21.76171875 C-20.625 20.8125 -20.625 20.8125 -22.625 17.8125 C-22.3008631 14.49009676 -22.01723697 13.20473697 -19.625 10.8125 C-17.6015625 10.80078125 -17.6015625 10.80078125 -15.25 11.125 C-14.47914063 11.22425781 -13.70828125 11.32351563 -12.9140625 11.42578125 C-10.77966662 11.78637031 -8.71541429 12.25410166 -6.625 12.8125 C-6.67720703 11.78189453 -6.67720703 11.78189453 -6.73046875 10.73046875 C-6.77107422 9.37888672 -6.77107422 9.37888672 -6.8125 8 C-6.84730469 7.10667969 -6.88210938 6.21335937 -6.91796875 5.29296875 C-6.625 2.8125 -6.625 2.8125 -5.33984375 0.9765625 C-3.625 -0.1875 -3.625 -0.1875 0 0 Z " fill="#47C3E4" transform="translate(749.625,550.1875)"/>
<path d="M0 0 C1.670625 0.4021875 1.670625 0.4021875 3.375 0.8125 C4.63737731 3.33725462 4.47356404 5.12450466 4.4375 7.9375 C4.42847656 8.84757813 4.41945313 9.75765625 4.41015625 10.6953125 C4.39855469 11.39398437 4.38695312 12.09265625 4.375 12.8125 C5.591875 12.4825 6.80875 12.1525 8.0625 11.8125 C15.85298266 9.89928959 15.85298266 9.89928959 19.25 11.9375 C20.375 13.8125 20.375 13.8125 20.625 16.75 C19.14667335 20.3719003 18.38340078 20.62824377 14.9375 22.1875 C10.82215447 23.8125 10.82215447 23.8125 8.375 23.8125 C8.81972656 24.39257812 9.26445313 24.97265625 9.72265625 25.5703125 C14.375 31.99245444 14.375 31.99245444 14.375 36.3125 C13.375 38.8125 13.375 38.8125 11.375 39.8125 C8.625 40.375 8.625 40.375 5.375 39.8125 C3.01521364 37.3726304 1.17980615 34.67970977 -0.625 31.8125 C-1.223125 32.575625 -1.82125 33.33875 -2.4375 34.125 C-3.159375 35.011875 -3.88125 35.89875 -4.625 36.8125 C-5.07875 37.410625 -5.5325 38.00875 -6 38.625 C-8.54677576 40.48610537 -10.57958145 40.20127684 -13.625 39.8125 C-15.86561155 36.45158267 -16.23166616 35.71249673 -15.625 31.8125 C-14.13527064 29.01990629 -12.42996011 26.4103533 -10.625 23.8125 C-11.32367187 23.63074219 -12.02234375 23.44898438 -12.7421875 23.26171875 C-13.65226563 23.01035156 -14.56234375 22.75898437 -15.5 22.5 C-16.40492188 22.25636719 -17.30984375 22.01273438 -18.2421875 21.76171875 C-20.625 20.8125 -20.625 20.8125 -22.625 17.8125 C-22.3008631 14.49009676 -22.01723697 13.20473697 -19.625 10.8125 C-17.6015625 10.80078125 -17.6015625 10.80078125 -15.25 11.125 C-14.47914063 11.22425781 -13.70828125 11.32351563 -12.9140625 11.42578125 C-10.77966662 11.78637031 -8.71541429 12.25410166 -6.625 12.8125 C-6.67720703 11.78189453 -6.67720703 11.78189453 -6.73046875 10.73046875 C-6.77107422 9.37888672 -6.77107422 9.37888672 -6.8125 8 C-6.84730469 7.10667969 -6.88210938 6.21335937 -6.91796875 5.29296875 C-6.625 2.8125 -6.625 2.8125 -5.33984375 0.9765625 C-3.625 -0.1875 -3.625 -0.1875 0 0 Z " fill="#47C3E4" transform="translate(817.625,550.1875)"/>
<path d="M0 0 C1.670625 0.4021875 1.670625 0.4021875 3.375 0.8125 C4.63737731 3.33725462 4.47356404 5.12450466 4.4375 7.9375 C4.42847656 8.84757813 4.41945313 9.75765625 4.41015625 10.6953125 C4.39855469 11.39398437 4.38695312 12.09265625 4.375 12.8125 C5.591875 12.4825 6.80875 12.1525 8.0625 11.8125 C11.24255475 11.02452183 14.08233204 10.4251273 17.375 10.8125 C19.375 12.8125 19.375 12.8125 19.5 16.4375 C19.45875 17.55125 19.4175 18.665 19.375 19.8125 C17.9187455 20.48369549 16.45992133 21.14931807 15 21.8125 C14.18789063 22.18375 13.37578125 22.555 12.5390625 22.9375 C10.375 23.8125 10.375 23.8125 8.375 23.8125 C8.81972656 24.40417969 9.26445313 24.99585938 9.72265625 25.60546875 C10.28855469 26.39566406 10.85445312 27.18585937 11.4375 28 C12.00597656 28.77730469 12.57445312 29.55460938 13.16015625 30.35546875 C14.375 32.8125 14.375 32.8125 14.18359375 35.48828125 C13.375 37.8125 13.375 37.8125 11.375 39.8125 C8.625 40.4375 8.625 40.4375 5.375 39.8125 C3.01787737 37.37005166 1.17987253 34.67981522 -0.625 31.8125 C-1.223125 32.575625 -1.82125 33.33875 -2.4375 34.125 C-3.159375 35.011875 -3.88125 35.89875 -4.625 36.8125 C-5.07875 37.410625 -5.5325 38.00875 -6 38.625 C-8.54677576 40.48610537 -10.57958145 40.20127684 -13.625 39.8125 C-15.86561155 36.45158267 -16.23166616 35.71249673 -15.625 31.8125 C-14.13527064 29.01990629 -12.42996011 26.4103533 -10.625 23.8125 C-11.32367187 23.63074219 -12.02234375 23.44898438 -12.7421875 23.26171875 C-13.65226563 23.01035156 -14.56234375 22.75898437 -15.5 22.5 C-16.40492188 22.25636719 -17.30984375 22.01273438 -18.2421875 21.76171875 C-20.625 20.8125 -20.625 20.8125 -22.625 17.8125 C-22.3008631 14.49009676 -22.01723697 13.20473697 -19.625 10.8125 C-17.6015625 10.80078125 -17.6015625 10.80078125 -15.25 11.125 C-14.47914063 11.22425781 -13.70828125 11.32351563 -12.9140625 11.42578125 C-10.77966662 11.78637031 -8.71541429 12.25410166 -6.625 12.8125 C-6.67720703 11.78189453 -6.67720703 11.78189453 -6.73046875 10.73046875 C-6.77107422 9.37888672 -6.77107422 9.37888672 -6.8125 8 C-6.84730469 7.10667969 -6.88210938 6.21335937 -6.91796875 5.29296875 C-6.625 2.8125 -6.625 2.8125 -5.33984375 0.9765625 C-3.625 -0.1875 -3.625 -0.1875 0 0 Z " fill="#47C3E4" transform="translate(885.625,550.1875)"/>
<path d="M0 0 C0.66 0 1.32 0 2 0 C2.83739781 2.1234016 3.66980283 4.2487728 4.5 6.375 C4.9640625 7.55835938 5.428125 8.74171875 5.90625 9.9609375 C7 13 7 13 7 15 C8.155 15.12375 9.31 15.2475 10.5 15.375 C14.78350375 15.90278885 18.83352672 16.88398037 23 18 C21.20638299 20.54095744 19.69910926 22.62880315 16.91796875 24.10546875 C14.26597507 25.54061069 12.75703734 26.51922023 11 29 C10.59373837 34.46557315 11.17851958 39.59619913 12 45 C8.66810245 43.77002742 5.94714684 42.37127658 3.0625 40.3125 C0.27878339 38.54530912 -0.67983173 38 -4.0625 38 C-7.46901209 39.15966369 -10.6989856 40.56748432 -14 42 C-14.99 42 -15.98 42 -17 42 C-16.855625 41.27554687 -16.71125 40.55109375 -16.5625 39.8046875 C-16.376875 38.83789062 -16.19125 37.87109375 -16 36.875 C-15.814375 35.92367188 -15.62875 34.97234375 -15.4375 33.9921875 C-14.38808085 27.77465147 -14.38808085 27.77465147 -16.96875 22.26171875 C-17.8040625 21.41222656 -18.639375 20.56273437 -19.5 19.6875 C-24 15.04166667 -24 15.04166667 -24 14 C-23.10796875 13.93941406 -22.2159375 13.87882812 -21.296875 13.81640625 C-19.54117188 13.69072266 -19.54117188 13.69072266 -17.75 13.5625 C-16.58984375 13.48128906 -15.4296875 13.40007812 -14.234375 13.31640625 C-12.63335937 13.15978516 -12.63335937 13.15978516 -11 13 C-10.27554688 12.9484375 -9.55109375 12.896875 -8.8046875 12.84375 C-5.79409795 11.43620164 -4.89552175 8.80103766 -3.375 5.9375 C-2.30197559 3.92967921 -1.18888849 1.94146075 0 0 Z " fill="#48C3E4" transform="translate(217,1091)"/>
<path d="M0 0 C1.87225502 -0.01902626 1.87225502 -0.01902626 3.78233337 -0.03843689 C5.1459876 -0.03638536 6.5096407 -0.03339727 7.87329102 -0.02954102 C9.27189895 -0.03410202 10.67050463 -0.03940736 12.06910706 -0.04542542 C15.0004283 -0.0543611 17.93147718 -0.05192875 20.86279297 -0.04199219 C24.61690631 -0.03050581 28.37007857 -0.05070505 32.12406826 -0.07990932 C35.01261861 -0.09826868 37.90094337 -0.09797944 40.78953743 -0.0922718 C42.17341494 -0.09211853 43.55730768 -0.09816796 44.94112968 -0.11056328 C46.87736725 -0.12546205 48.81375953 -0.11217192 50.75 -0.09765625 C51.85125717 -0.09749008 52.95251434 -0.09732391 54.08714294 -0.09715271 C57.61047694 0.52191146 58.82761378 1.55700508 60.93969727 4.40405273 C60.79175725 8.10255314 60.58164153 9.76210847 57.93969727 12.40405273 C55.24499512 12.65802002 55.24499512 12.65802002 51.77758789 12.6628418 C50.48284546 12.66914612 49.18810303 12.67545044 47.85412598 12.6819458 C46.4347317 12.67836613 45.01533865 12.67426419 43.59594727 12.66967773 C42.14628026 12.67102443 40.6966137 12.672965 39.24694824 12.67547607 C36.20715032 12.67842715 33.16746984 12.6741303 30.12768555 12.66479492 C26.22675478 12.65340029 22.3260992 12.65995987 18.42517853 12.67193985 C15.43123289 12.67915895 12.43735274 12.67687032 9.44340515 12.67168427 C8.00485705 12.6703479 6.56630305 12.67199503 5.12776184 12.67664337 C3.11911123 12.68170913 1.11043983 12.67262217 -0.89819336 12.6628418 C-2.04243774 12.66125061 -3.18668213 12.65965942 -4.36560059 12.65802002 C-7.06030273 12.40405273 -7.06030273 12.40405273 -9.06030273 10.40405273 C-9.62084287 4.23811121 -9.62084287 4.23811121 -7.91954041 1.70664978 C-5.25243921 -0.16194303 -3.23947101 0.01590497 0 0 Z " fill="#47C3E4" transform="translate(534.060302734375,1183.595947265625)"/>
<path d="M0 0 C1.87225502 -0.01902626 1.87225502 -0.01902626 3.78233337 -0.03843689 C5.1459876 -0.03638536 6.5096407 -0.03339727 7.87329102 -0.02954102 C9.27189895 -0.03410202 10.67050463 -0.03940736 12.06910706 -0.04542542 C15.0004283 -0.0543611 17.93147718 -0.05192875 20.86279297 -0.04199219 C24.61690631 -0.03050581 28.37007857 -0.05070505 32.12406826 -0.07990932 C35.01261861 -0.09826868 37.90094337 -0.09797944 40.78953743 -0.0922718 C42.17341494 -0.09211853 43.55730768 -0.09816796 44.94112968 -0.11056328 C46.87736725 -0.12546205 48.81375953 -0.11217192 50.75 -0.09765625 C51.85125717 -0.09749008 52.95251434 -0.09732391 54.08714294 -0.09715271 C57.61047694 0.52191146 58.82761378 1.55700508 60.93969727 4.40405273 C60.79175725 8.10255314 60.58164153 9.76210847 57.93969727 12.40405273 C55.24499512 12.65802002 55.24499512 12.65802002 51.77758789 12.6628418 C50.48284546 12.66914612 49.18810303 12.67545044 47.85412598 12.6819458 C46.4347317 12.67836613 45.01533865 12.67426419 43.59594727 12.66967773 C42.14628026 12.67102443 40.6966137 12.672965 39.24694824 12.67547607 C36.20715032 12.67842715 33.16746984 12.6741303 30.12768555 12.66479492 C26.22675478 12.65340029 22.3260992 12.65995987 18.42517853 12.67193985 C15.43123289 12.67915895 12.43735274 12.67687032 9.44340515 12.67168427 C8.00485705 12.6703479 6.56630305 12.67199503 5.12776184 12.67664337 C3.11911123 12.68170913 1.11043983 12.67262217 -0.89819336 12.6628418 C-2.04243774 12.66125061 -3.18668213 12.65965942 -4.36560059 12.65802002 C-7.06030273 12.40405273 -7.06030273 12.40405273 -9.06030273 10.40405273 C-9.62084287 4.23811121 -9.62084287 4.23811121 -7.91954041 1.70664978 C-5.25243921 -0.16194303 -3.23947101 0.01590497 0 0 Z " fill="#47C3E4" transform="translate(442.060302734375,1183.595947265625)"/>
<path d="M0 0 C3.86720247 2.00521609 6.94761566 4.11127178 9 8 C10.03070903 12.56456857 10.41841877 14.85485388 8.8125 19.25 C6.28951964 23.07797019 4.40436803 25.53187732 0 27 C-4.6594918 27.54138857 -8.10553068 27.43067041 -12.375 25.375 C-16.36967893 21.76076668 -18.1206612 18.35559774 -18.4375 13 C-18.25887909 8.75369377 -16.7873166 6.23931389 -14 3 C-9.80337343 -0.59710849 -5.29956195 -0.85054698 0 0 Z " fill="#47C3E3" transform="translate(1050,550)"/>
<path d="M0 0 C4.40830916 2.16407904 7.12843553 4.42506462 9 9 C9.53580592 14.6259622 9.18905893 18.16142783 6 23 C3.67479087 25.76118585 2.01210609 26.83466359 -1.55859375 27.41796875 C-6.15504726 27.64872693 -9.85432144 27.70010265 -13.5625 24.75 C-17.70378343 20.07778279 -18.49964668 16.63628731 -18.390625 10.4765625 C-17.75000991 6.4150628 -15.98077126 4.77281047 -13 2 C-8.73999095 -0.84000604 -5.00058053 -0.63091437 0 0 Z " fill="#46C3E3" transform="translate(1113,550)"/>
<path d="M0 0 C4.20140665 1.55607654 6.70248122 3.13049468 9 7 C10.24283781 10.72851342 10.5280726 14.12746761 10 18 C7.77864953 22.3604287 5.59457298 25.20212362 1 27 C-3.12935355 27.62251561 -7.11144983 27.97324058 -10.91015625 26.015625 C-14.52899179 23.13478295 -16.65759326 20.18419455 -17.37109375 15.6328125 C-17.48778907 11.22584799 -17.56332413 8.01682108 -14.6875 4.5 C-9.71270356 -0.12771762 -6.55510077 -0.72834453 0 0 Z " fill="#46C2E4" transform="translate(1171,550)"/>
<path d="M0 0 C2.69140625 1.20581055 2.69140625 1.20581055 5.5625 2.88671875 C6.60664062 3.49580078 7.65078125 4.10488281 8.7265625 4.73242188 C9.80679688 5.37759766 10.88703125 6.02277344 12 6.6875 C13.08023438 7.31333984 14.16046875 7.93917969 15.2734375 8.58398438 C25.64019799 14.69525368 25.64019799 14.69525368 29 19 C29 22.1875 29 22.1875 28 25 C25 27 25 27 21.69262695 26.82958984 C17.85536936 25.96750711 15.27046208 24.75586701 11.91796875 22.7265625 C10.82162109 22.0665625 9.72527344 21.4065625 8.59570312 20.7265625 C8.03633057 20.38141602 7.47695801 20.03626953 6.90063477 19.68066406 C5.18225198 18.62176608 3.45276107 17.58322015 1.72070312 16.546875 C-6.72496996 11.41254506 -6.72496996 11.41254506 -9 8 C-8.8125 4.9375 -8.8125 4.9375 -8 2 C-4.70092767 -0.19938155 -3.82190333 -0.43880333 0 0 Z " fill="#E6C80B" transform="translate(1005,793)"/>
<path d="M0 0 C3.89732724 0.46767927 4.59541368 1.45600958 7.125 4.375 C8.25068338 6.13401714 9.31423778 7.93381207 10.32421875 9.76171875 C10.89333984 10.78201172 11.46246094 11.80230469 12.04882812 12.85351562 C12.9218457 14.44196289 12.9218457 14.44196289 13.8125 16.0625 C14.98179004 18.17128476 16.15229603 20.27939592 17.32421875 22.38671875 C17.83815186 23.31959717 18.35208496 24.25247559 18.8815918 25.21362305 C19.94867106 27.28544309 19.94867106 27.28544309 21.125 28.375 C21.38793056 32.40660191 21.41904844 33.93392734 19.125 37.375 C15.75 37.8125 15.75 37.8125 12.125 37.375 C9.14253807 34.85311991 7.26804459 32.20784885 5.43359375 28.78515625 C4.96373047 27.91826172 4.49386719 27.05136719 4.00976562 26.15820312 C3.53216797 25.26037109 3.05457031 24.36253906 2.5625 23.4375 C1.60364313 21.65713256 0.64403026 19.87717204 -0.31640625 18.09765625 C-0.75976318 17.2687085 -1.20312012 16.43976074 -1.65991211 15.58569336 C-2.62096062 13.8371914 -3.66062535 12.13192192 -4.7265625 10.4453125 C-5.875 8.375 -5.875 8.375 -5.6875 5.1875 C-4.60396642 1.43680683 -3.9138208 0.51049836 0 0 Z " fill="#E6C80A" transform="translate(1046.875,747.625)"/>
<path d="M0 0 C2 2 2 2 2.375 4.875 C1.90635877 8.7803436 0.92742541 9.46336795 -2 12 C-6.0255151 14.62256695 -10.24317686 16.90898244 -14.4375 19.25 C-16.13616211 20.22453125 -16.13616211 20.22453125 -17.86914062 21.21875 C-19.50979492 22.13914062 -19.50979492 22.13914062 -21.18359375 23.078125 C-22.17931396 23.63918945 -23.17503418 24.20025391 -24.20092773 24.77832031 C-27.10506195 26.04585521 -28.87471266 26.34593522 -32 26 C-33.8125 24.9375 -33.8125 24.9375 -35 23 C-35.421875 19.62109375 -35.421875 19.62109375 -35 16 C-32.68359375 13.8828125 -32.68359375 13.8828125 -29.4375 12.125 C-28.24545037 11.46339748 -27.05407091 10.80058637 -25.86328125 10.13671875 C-24.9189624 9.6250415 -24.9189624 9.6250415 -23.95556641 9.10302734 C-21.92967868 7.96033562 -19.98971498 6.72944262 -18.04296875 5.45703125 C-17.38949463 5.03728027 -16.73602051 4.6175293 -16.06274414 4.18505859 C-14.79762204 3.37054758 -13.53984127 2.54448643 -12.29077148 1.70556641 C-7.84367703 -1.07729292 -5.03672003 -1.37983853 0 0 Z " fill="#E6C80A" transform="translate(1220,794)"/>
<path d="M0 0 C3.0625 0.3125 3.0625 0.3125 4.9375 1.4375 C6.58186073 4.17810121 6.31167125 6.14933657 6.0625 9.3125 C4.82495117 12.13330078 4.82495117 12.13330078 3.10546875 15.0078125 C2.48736328 16.05324219 1.86925781 17.09867188 1.23242188 18.17578125 C0.57822266 19.25214844 -0.07597656 20.32851563 -0.75 21.4375 C-1.71389648 23.06365234 -1.71389648 23.06365234 -2.69726562 24.72265625 C-8.72973884 34.83720719 -8.72973884 34.83720719 -10.9375 37.3125 C-14.4375 37.8125 -14.4375 37.8125 -17.9375 37.3125 C-19.9375 35.6875 -19.9375 35.6875 -20.9375 33.3125 C-20.54290918 28.56738875 -19.08719621 25.36806516 -16.62890625 21.328125 C-15.63213867 19.67876953 -15.63213867 19.67876953 -14.61523438 17.99609375 C-14.26807373 17.4326123 -13.92091309 16.86913086 -13.56323242 16.28857422 C-12.49776862 14.55887754 -11.44604477 12.82141478 -10.39648438 11.08203125 C-3.9074789 0.41568925 -3.9074789 0.41568925 0 0 Z " fill="#E6C809" transform="translate(1170.9375,747.6875)"/>
<path d="M0 0 C0.76772232 0.00091141 1.53544464 0.00182281 2.32643127 0.00276184 C3.11554398 -0.00152328 3.90465668 -0.00580841 4.71768188 -0.01022339 C6.38795512 -0.01597053 8.05825338 -0.01646412 9.72853088 -0.01213074 C12.28568724 -0.00897345 14.84168392 -0.03241442 17.3986969 -0.05778503 C19.02044023 -0.06005825 20.64218667 -0.06076142 22.26393127 -0.05973816 C23.02962936 -0.06894791 23.79532745 -0.07815765 24.58422852 -0.08764648 C29.82642982 -0.04191876 29.82642982 -0.04191876 32.37550354 1.60359192 C34.10396469 4.58335794 33.17491455 7.10832979 32.36158752 10.30354309 C28.72480944 12.72806181 25.98017155 12.62639301 21.77174377 12.63948059 C21.03080978 12.64613739 20.28987579 12.65279419 19.52648926 12.65965271 C17.96056091 12.66977003 16.39458953 12.67447001 14.82862854 12.67414856 C12.43589603 12.67852151 10.04500925 12.71484576 7.65260315 12.75276184 C6.12982299 12.75863036 4.60703408 12.76259952 3.08424377 12.76448059 C2.37059158 12.77885162 1.65693939 12.79322266 0.92166138 12.80802917 C-2.49602599 12.77667495 -4.34474374 12.5197427 -7.12889099 10.470047 C-8.63841248 8.30354309 -8.63841248 8.30354309 -8.51341248 5.17854309 C-6.96761113 0.09948153 -4.98126111 0.0667894 0 0 Z " fill="#E5C708" transform="translate(1205.638412475586,854.6964569091797)"/>
<path d="M0 0 C2.875 0.875 2.875 0.875 4.875 2.875 C5.08702418 5.5645974 5.17897614 8.14863723 5.17578125 10.83984375 C5.18006638 11.62895645 5.1843515 12.41806915 5.18876648 13.23109436 C5.19451363 14.90136759 5.19500721 16.57166586 5.19067383 18.24194336 C5.18751655 20.79909972 5.21095751 23.3550964 5.23632812 25.91210938 C5.23860134 27.5338527 5.23930451 29.15559915 5.23828125 30.77734375 C5.247491 31.54304184 5.25670074 32.30873993 5.26618958 33.09764099 C5.22046185 38.33984229 5.22046185 38.33984229 3.57495117 40.88891602 C0.59518515 42.61737716 -1.9297867 41.68832702 -5.125 40.875 C-7.54951872 37.23822191 -7.44784992 34.49358403 -7.4609375 30.28515625 C-7.4675943 29.54422226 -7.4742511 28.80328827 -7.48110962 28.03990173 C-7.49122694 26.47397339 -7.49592692 24.90800201 -7.49560547 23.34204102 C-7.49997842 20.94930851 -7.53630267 18.55842173 -7.57421875 16.16601562 C-7.58008727 14.64323546 -7.58405643 13.12044656 -7.5859375 11.59765625 C-7.60030853 10.88400406 -7.61467957 10.17035187 -7.62948608 9.43507385 C-7.59813186 6.01738648 -7.34119961 4.16866874 -5.29150391 1.38452148 C-3.125 -0.125 -3.125 -0.125 0 0 Z " fill="#E5C708" transform="translate(1110.125,731.125)"/>
<path d="M0 0 C0.76550171 -0.00428513 1.53100342 -0.00857025 2.31970215 -0.01298523 C3.93692028 -0.01872392 5.55416423 -0.01923217 7.17138672 -0.01489258 C9.64725653 -0.01173024 12.12193397 -0.03520406 14.59765625 -0.06054688 C16.16926932 -0.06281967 17.74088562 -0.06352346 19.3125 -0.0625 C20.42353088 -0.07631462 20.42353088 -0.07631462 21.55700684 -0.09040833 C24.51203332 -0.06376415 26.64053842 -0.03411682 29.15820312 1.60083008 C30.8844627 4.54112984 29.90715074 7.1238935 29.15625 10.30078125 C26.648029 12.80900225 25.09471057 12.55707892 21.67030334 12.60432434 C20.9244548 12.60341293 20.17860626 12.60250153 19.41015625 12.6015625 C18.64323959 12.60584763 17.87632294 12.61013275 17.08616638 12.61454773 C15.46297188 12.62029448 13.83975162 12.62078874 12.21655273 12.61645508 C9.73181206 12.61329785 7.24826498 12.63673879 4.76367188 12.66210938 C3.1875015 12.66438261 1.61132793 12.66508575 0.03515625 12.6640625 C-0.70866806 12.67327225 -1.45249237 12.68248199 -2.21885681 12.69197083 C-7.32061827 12.64618441 -7.32061827 12.64618441 -9.81274414 11.00073242 C-11.56301631 8.11483493 -11.1997221 5.56385882 -10.84375 2.30078125 C-7.14380442 -0.16584914 -4.28293703 -0.00527011 0 0 Z " fill="#E5C706" transform="translate(990.84375,854.69921875)"/>
<path d="M0 0 C3.375 0.9375 3.375 0.9375 5.375 2.9375 C5.79795126 7.31842203 5.74659268 11.71426538 5.74560547 16.11328125 C5.74997037 18.29767289 5.78625701 20.48002975 5.82421875 22.6640625 C5.8300887 24.0546806 5.8340569 25.44530829 5.8359375 26.8359375 C5.84415527 28.10099121 5.85237305 29.36604492 5.86083984 30.66943359 C5.29337195 34.48658196 4.43562852 35.66358974 1.375 37.9375 C-1.1875 38.375 -1.1875 38.375 -3.625 37.9375 C-6.1298111 36.05889167 -6.61200625 34.97648126 -7.625 31.9375 C-7.91273324 27.48378634 -7.90271344 23.02445644 -7.9375 18.5625 C-7.96650391 17.33015625 -7.99550781 16.0978125 -8.02539062 14.828125 C-8.03376953 13.63960937 -8.04214844 12.45109375 -8.05078125 11.2265625 C-8.06536377 10.14068848 -8.07994629 9.05481445 -8.0949707 7.93603516 C-7.27868637 2.72792909 -5.39090752 -0.09294668 0 0 Z " fill="#E6C90F" transform="translate(800.625,685.0625)"/>
<path d="M0 0 C2.4934621 3.0018946 4.30864918 6.3399691 6.1875 9.75 C6.70763672 10.6575 7.22777344 11.565 7.76367188 12.5 C8.73603993 14.19884993 9.70014854 15.90247439 10.65307617 17.61230469 C11.60432337 19.29858304 12.61935093 20.94962935 13.67700195 22.57128906 C15.56505397 26.0373052 14.98720205 28.26273511 14 32 C10.75846834 34.1610211 9.76307099 34.64247553 6 34 C1.74279907 29.48905862 -1.16460605 23.9028888 -4.25 18.5625 C-5.08144531 17.1693457 -5.08144531 17.1693457 -5.9296875 15.74804688 C-6.45304688 14.84248047 -6.97640625 13.93691406 -7.515625 13.00390625 C-8.23153809 11.77909546 -8.23153809 11.77909546 -8.96191406 10.52954102 C-10.2080814 7.49296064 -10.29758933 5.25396389 -10 2 C-6.94510332 -1.64237681 -4.30840815 -1.56433155 0 0 Z " fill="#E6C80C" transform="translate(845,865)"/>
<path d="M0 0 C2.625 0.375 2.625 0.375 4.9375 2.0625 C7.00874831 4.90087732 6.99908505 5.92066959 6.625 9.375 C4.91730768 13.21524928 2.75951135 16.77466907 0.60083008 20.37841797 C-0.43457403 22.12007821 -1.4311127 23.88046417 -2.42773438 25.64453125 C-3.4090332 27.29775391 -3.4090332 27.29775391 -4.41015625 28.984375 C-5.0019165 29.99467773 -5.59367676 31.00498047 -6.20336914 32.04589844 C-8.375 34.375 -8.375 34.375 -12.00170898 35.27441406 C-15.375 35.375 -15.375 35.375 -17.3125 34.375 C-18.95659699 31.2802292 -19.0779053 28.73672101 -18.375 25.375 C-16.40108351 21.23506565 -13.96983826 17.42192436 -11.5 13.5625 C-10.84902344 12.51384766 -10.19804688 11.46519531 -9.52734375 10.38476562 C-3.36496338 0.53131001 -3.36496338 0.53131001 0 0 Z " fill="#E6C80C" transform="translate(758.375,863.625)"/>
<path d="M0 0 C1.875 1.125 1.875 1.125 3 3 C3.4375 5.9375 3.4375 5.9375 3 9 C-0.99316869 13.6258057 -6.13615101 16.25022071 -11.375 19.25 C-12.30828125 19.80429687 -13.2415625 20.35859375 -14.203125 20.9296875 C-15.11320313 21.45304688 -16.02328125 21.97640625 -16.9609375 22.515625 C-17.78384277 22.99290039 -18.60674805 23.47017578 -19.45458984 23.96191406 C-22.48831089 25.19914616 -24.75140856 25.26151755 -28 25 C-29.875 23.875 -29.875 23.875 -31 22 C-31.5 19.0625 -31.5 19.0625 -31 16 C-26.60588882 11.85749437 -21.19985302 8.87806054 -16.0625 5.75 C-15.18142578 5.19570313 -14.30035156 4.64140625 -13.39257812 4.0703125 C-5.21892576 -0.90122737 -5.21892576 -0.90122737 0 0 Z " fill="#E6C80B" transform="translate(896,739)"/>
<path d="M0 0 C3.625 0.4375 3.625 0.4375 5.45703125 2.34765625 C8.43030203 6.58523676 11.21915887 10.907691 13.9375 15.3125 C14.50017578 16.18519531 15.06285156 17.05789063 15.64257812 17.95703125 C20.10069711 25.21443424 20.10069711 25.21443424 19.66796875 29.4453125 C18.625 32.4375 18.625 32.4375 15.625 34.4375 C12.42084166 34.78704455 11.38087145 34.89562563 8.625 33.4375 C5.61250735 29.86510814 3.43804997 25.8944499 1.1875 21.8125 C0.55134766 20.73097656 -0.08480469 19.64945313 -0.74023438 18.53515625 C-3.95419197 12.88052408 -5.99133617 9.10472781 -5.375 2.4375 C-3.375 0.4375 -3.375 0.4375 0 0 Z " fill="#E6C80B" transform="translate(745.375,699.5625)"/>
<path d="M0 0 C2.21875 1.03125 2.21875 1.03125 4.5 2.5 C5.78390625 3.31210937 5.78390625 3.31210937 7.09375 4.140625 C8.0528125 4.75421875 9.011875 5.3678125 10 6 C11.15437895 6.70619265 12.31071337 7.40919646 13.46875 8.109375 C22.71268331 13.71268331 22.71268331 13.71268331 25 16 C25.33015665 19.10347254 25.50531294 21.15781176 23.875 23.875 C21.13768151 25.5173911 19.16055263 25.23990052 16 25 C11.67374432 23.2292141 7.72100503 20.79176935 3.6875 18.4375 C2.57826172 17.82841797 1.46902344 17.21933594 0.32617188 16.59179688 C-7.42592092 12.10574195 -7.42592092 12.10574195 -9.0078125 9.05883789 C-9.55982447 5.87271456 -9.16098567 4.2414785 -7.375 1.5625 C-4.53332206 -0.30702496 -3.34423053 -0.32251481 0 0 Z " fill="#E6C80A" transform="translate(874,834)"/>
<path d="M0 0 C4.54999061 1.2480877 8.30451682 3.3907006 12.375 5.73828125 C13.15617188 6.17720703 13.93734375 6.61613281 14.7421875 7.06835938 C16.9685611 8.32959627 19.17398525 9.62090315 21.375 10.92578125 C21.9949585 11.27930664 22.61491699 11.63283203 23.25366211 11.99707031 C27.1904822 14.37327033 27.1904822 14.37327033 28.06640625 16.99609375 C27.94180623 18.98214259 27.66086805 20.95646801 27.375 22.92578125 C23.78102284 25.32176602 22.62109353 25.45281394 18.375 24.92578125 C15.42158097 23.63930449 12.73221794 22.00014282 10 20.30078125 C9.24920166 19.84654785 8.49840332 19.39231445 7.72485352 18.92431641 C2.71582768 15.8588558 -2.05453679 12.62104938 -6.625 8.92578125 C-6.3125 5.55078125 -6.3125 5.55078125 -5.625 1.92578125 C-2.625 -0.07421875 -2.625 -0.07421875 0 0 Z " fill="#E6C80B" transform="translate(706.625,739.07421875)"/>
<path d="M0 0 C3.625 0.25 3.625 0.25 5.625 1.3125 C7.21738212 4.39774035 6.57810223 7.05014747 5.625 10.25 C3.73289843 14.16468024 1.51113638 17.85160484 -0.75 21.5625 C-1.34039063 22.56345703 -1.93078125 23.56441406 -2.5390625 24.59570312 C-6.96441753 31.97627836 -6.96441753 31.97627836 -10.375 34.25 C-13.20579592 34.60384949 -14.74330089 34.6420891 -17.1875 33.125 C-18.92233935 30.38577998 -18.63525943 28.45632863 -18.375 25.25 C-17.10571289 22.3815918 -17.10571289 22.3815918 -15.34765625 19.44921875 C-14.72052734 18.39025391 -14.09339844 17.33128906 -13.44726562 16.24023438 C-12.78404297 15.15033203 -12.12082031 14.06042969 -11.4375 12.9375 C-10.77814453 11.82826172 -10.11878906 10.71902344 -9.43945312 9.57617188 C-3.89412219 0.2884535 -3.89412219 0.2884535 0 0 Z " fill="#E6C80A" transform="translate(853.375,699.75)"/>
<path d="M0 0 C1.8125 1.0625 1.8125 1.0625 3 3 C3.75 6.3125 3.75 6.3125 3 10 C0.40247847 12.63243446 -2.78525778 14.2172418 -6 16 C-7.31819658 16.788682 -8.63447397 17.58057714 -9.94921875 18.375 C-11.36082481 19.21028723 -12.77359241 20.04361454 -14.1875 20.875 C-14.86425781 21.28089355 -15.54101562 21.68678711 -16.23828125 22.10498047 C-20.29074827 24.41826372 -23.19949537 25.65526176 -28 25 C-29.9375 23.375 -29.9375 23.375 -31 21 C-31.17578125 18.23828125 -31.17578125 18.23828125 -30 15 C-26.9981054 12.5065379 -23.6600309 10.69135082 -20.25 8.8125 C-19.3425 8.29236328 -18.435 7.77222656 -17.5 7.23632812 C-15.80115007 6.26396007 -14.09752561 5.29985146 -12.38769531 4.34692383 C-10.68958686 3.38900314 -9.01640611 2.38630078 -7.36230469 1.35424805 C-4.6044275 -0.22677146 -3.12796846 -0.49388976 0 0 Z " fill="#E6C80A" transform="translate(731,834)"/>
<path d="M0 0 C3.34046288 2.74080175 4.69507138 5.1428349 5.921875 9.24609375 C6.22480469 10.24833984 6.52773438 11.25058594 6.83984375 12.28320312 C7.14019531 13.32412109 7.44054687 14.36503906 7.75 15.4375 C8.06582031 16.47455078 8.38164062 17.51160156 8.70703125 18.58007812 C11.37038005 27.55590946 11.37038005 27.55590946 11 32 C8.97580677 34.77389443 7.84814923 35.85519403 4.4375 36.4375 C1.4209563 35.89606908 0.86411884 35.41609169 -1 33 C-1.9386882 30.45294969 -2.75418681 27.97654206 -3.5 25.375 C-3.93014898 23.92813524 -4.3611335 22.48151862 -4.79296875 21.03515625 C-4.99841309 20.33922363 -5.20385742 19.64329102 -5.41552734 18.92626953 C-6.1430351 16.52859358 -6.97011967 14.1719634 -7.8125 11.8125 C-9.56324111 6.1916996 -9.56324111 6.1916996 -9 3 C-6.73644047 -0.64684591 -4.03172437 -0.57596062 0 0 Z " fill="#49C4E4" transform="translate(446,544)"/>
<path d="M0 0 C3.5625 0.3125 3.5625 0.3125 5.17114258 1.51245117 C6.88980995 3.73595258 7.56669519 5.73815106 8.38671875 8.42578125 C8.69287109 9.42673828 8.99902344 10.42769531 9.31445312 11.45898438 C9.62318359 12.50376953 9.93191406 13.54855469 10.25 14.625 C10.57033203 15.65818359 10.89066406 16.69136719 11.22070312 17.75585938 C12.72610245 22.75994797 13.92084642 27.03549335 13.5625 32.3125 C11.9375 34.75 11.9375 34.75 9.5625 36.3125 C5.8639996 36.16455998 4.20444427 35.95444427 1.5625 33.3125 C0.80053711 31.38891602 0.80053711 31.38891602 0.08984375 29.06640625 C-0.16990234 28.22916016 -0.42964844 27.39191406 -0.69726562 26.52929688 C-0.96216797 25.65337891 -1.22707031 24.77746094 -1.5 23.875 C-2.03253626 22.14713054 -2.56508771 20.41926576 -3.09765625 18.69140625 C-3.33105713 17.9238501 -3.56445801 17.15629395 -3.80493164 16.36547852 C-4.32614428 14.67390109 -4.87775927 12.99172218 -5.4375 11.3125 C-5.55382729 9.79483461 -5.61246239 8.2720654 -5.625 6.75 C-5.63917969 5.96496094 -5.65335937 5.17992187 -5.66796875 4.37109375 C-5.23848511 0.53485857 -3.62029923 0.32911811 0 0 Z " fill="#49C3E4" transform="translate(452.4375,881.6875)"/>
<path d="M0 0 C3.87131728 4.14910376 5.0659429 9.52123417 6.75 14.8125 C7.07871094 15.78509766 7.40742188 16.75769531 7.74609375 17.75976562 C9.51647025 23.27631856 10.59743505 27.35623183 9 33 C7 35 7 35 3.5625 35.4375 C2.386875 35.293125 1.21125 35.14875 0 35 C-2.81640016 31.27531079 -4.16101443 27.02840578 -5.5625 22.625 C-5.77068359 21.99078125 -5.97886719 21.3565625 -6.19335938 20.703125 C-10.5849576 7.21169472 -10.5849576 7.21169472 -10 3 C-7.6631004 -0.98647579 -4.22387479 -0.52798435 0 0 Z " fill="#49C3E4" transform="translate(161,875)"/>
<path d="M0 0 C3.65587284 0.82257139 4.42075726 2.46152613 6.5 5.5625 C7.77845446 8.60522162 8.74087406 11.71548226 9.6875 14.875 C10.07711914 16.09993164 10.07711914 16.09993164 10.47460938 17.34960938 C14.44061797 30.21095508 14.44061797 30.21095508 12.5 35.0625 C10.5 36.5625 10.5 36.5625 7 37.0625 C3.5 36.5625 3.5 36.5625 1.87939453 34.82739258 C0.45471289 32.48814097 -0.32932116 30.45570134 -1.0703125 27.82421875 C-1.32683594 26.92123047 -1.58335937 26.01824219 -1.84765625 25.08789062 C-2.10417969 24.15138672 -2.36070312 23.21488281 -2.625 22.25 C-2.88925781 21.32509766 -3.15351563 20.40019531 -3.42578125 19.44726562 C-4.8079132 14.51158123 -6.12453844 9.68486848 -6.5 4.5625 C-4.57467413 1.6745112 -3.38133625 0.76080066 0 0 Z " fill="#49C3E4" transform="translate(476.5,571.4375)"/>
<path d="M0 0 C3.125 0.375 3.125 0.375 5.12109375 1.75390625 C8.12177948 5.67877979 9.05927157 9.95778337 10.3125 14.6875 C10.70211914 16.07485352 10.70211914 16.07485352 11.09960938 17.49023438 C12.45590768 22.4212724 13.7438033 27.26562663 14.125 32.375 C12.5 34.8125 12.5 34.8125 10.125 36.375 C7.5625 36.8125 7.5625 36.8125 5.125 36.375 C2.61315209 34.31193559 1.57532517 32.45783352 0.58984375 29.390625 C0.33783203 28.61976563 0.08582031 27.84890625 -0.17382812 27.0546875 C-0.42583984 26.25289062 -0.67785156 25.45109375 -0.9375 24.625 C-1.19337891 23.83867188 -1.44925781 23.05234375 -1.71289062 22.2421875 C-2.45084445 19.95813504 -3.16714568 17.66853947 -3.875 15.375 C-4.08527832 14.70766846 -4.29555664 14.04033691 -4.51220703 13.3527832 C-5.74954657 9.28224787 -6.03176148 6.52006199 -4.875 2.375 C-2.875 0.375 -2.875 0.375 0 0 Z " fill="#49C3E4" transform="translate(543.875,543.625)"/>
<path d="M0 0 C4.26913618 3.4716797 5.11229883 8.6856789 6.6875 13.75 C7.00783203 14.72710938 7.32816406 15.70421875 7.65820312 16.7109375 C9.32208853 21.97576893 10.52529522 26.4733024 10 32 C8.875 33.9375 8.875 33.9375 7 35 C1.83188125 35.64601484 1.83188125 35.64601484 -0.57348633 33.77807617 C-3.43013399 30.21741129 -4.34343283 25.61407613 -5.6875 21.3125 C-6.00783203 20.34376953 -6.32816406 19.37503906 -6.65820312 18.37695312 C-8.45219956 12.71955284 -9.54231464 7.93834527 -9 2 C-6.22677943 -1.38949181 -4.00593654 -1.4380285 0 0 Z " fill="#49C3E4" transform="translate(110,875)"/>
<path d="M0 0 C0.67530258 -0.00524185 1.35060516 -0.0104837 2.04637146 -0.0158844 C3.46929553 -0.02228957 4.89227266 -0.02098704 6.31518555 -0.01245117 C8.49297907 -0.00391845 10.66816712 -0.03275217 12.84570312 -0.06445312 C14.23046797 -0.06606477 15.61523745 -0.0654883 17 -0.0625 C18.25756104 -0.06435303 19.51512207 -0.06620605 20.81079102 -0.06811523 C23.93359375 0.43359375 23.93359375 0.43359375 25.84350586 2.30444336 C27.19427954 4.94276302 27.38379276 6.50730019 26.93359375 9.43359375 C25.859375 11.06103516 25.859375 11.06103516 23.93359375 12.43359375 C20.703125 12.82177734 20.703125 12.82177734 16.74609375 12.83203125 C16.04718018 12.83490143 15.3482666 12.83777161 14.62817383 12.84072876 C13.15217274 12.842768 11.67614454 12.83724778 10.20019531 12.82470703 C7.94144237 12.80864955 5.68447857 12.82455845 3.42578125 12.84375 C1.99088147 12.84176754 0.5559828 12.83792381 -0.87890625 12.83203125 C-2.18472656 12.82864746 -3.49054687 12.82526367 -4.8359375 12.82177734 C-8.06640625 12.43359375 -8.06640625 12.43359375 -9.98828125 11.09619141 C-11.70366548 8.45086382 -11.51267323 6.49371019 -11.06640625 3.43359375 C-7.74068693 -0.04881073 -4.65585231 0.03605954 0 0 Z " fill="#E5C708" transform="translate(887.06640625,792.56640625)"/>
<path d="M0 0 C3.5625 0.3125 3.5625 0.3125 5.17114258 1.51245117 C6.88980995 3.73595258 7.56669519 5.73815106 8.38671875 8.42578125 C8.69287109 9.42673828 8.99902344 10.42769531 9.31445312 11.45898438 C9.62318359 12.50376953 9.93191406 13.54855469 10.25 14.625 C10.57033203 15.65818359 10.89066406 16.69136719 11.22070312 17.75585938 C12.72610245 22.75994797 13.92084642 27.03549335 13.5625 32.3125 C11.9375 34.75 11.9375 34.75 9.5625 36.3125 C6.5625 36.5625 6.5625 36.5625 3.5625 35.3125 C0.06699934 30.2437054 -1.60194945 24.12850345 -3.1875 18.25 C-3.40792969 17.48623047 -3.62835937 16.72246094 -3.85546875 15.93554688 C-5.12980448 11.30915412 -5.85694191 7.15458679 -5.4375 2.3125 C-3.4375 0.3125 -3.4375 0.3125 0 0 Z " fill="#49C3E4" transform="translate(553.4375,881.6875)"/>
<path d="M0 0 C3.5625 1.1875 3.5625 1.1875 4.73046875 2.703125 C5.87714874 5.15561607 6.72591527 7.61081903 7.5625 10.1875 C7.77680664 10.81301758 7.99111328 11.43853516 8.21191406 12.08300781 C8.92859513 14.17523807 9.6249491 16.27302421 10.3125 18.375 C10.53566895 19.05183838 10.75883789 19.72867676 10.98876953 20.42602539 C12.24432344 24.45594842 12.94590862 27.97000523 12.5625 32.1875 C10.9375 34.625 10.9375 34.625 8.5625 36.1875 C5.5 36.25 5.5 36.25 2.5625 35.1875 C-0.76977021 30.80293394 -2.07408623 25.5791773 -3.625 20.375 C-3.89763672 19.51068359 -4.17027344 18.64636719 -4.45117188 17.75585938 C-6.06356537 12.40141984 -7.02023088 7.78296966 -6.4375 2.1875 C-3.4375 0.1875 -3.4375 0.1875 0 0 Z " fill="#48C3E4" transform="translate(528.4375,570.8125)"/>
<path d="M0 0 C3.24316165 4.24362283 4.31147063 9.10770895 5.625 14.1875 C6.05298141 15.80644157 6.4825918 17.42495363 6.9140625 19.04296875 C7.1917749 20.11067505 7.1917749 20.11067505 7.47509766 21.19995117 C7.96457364 23.07826544 7.96457364 23.07826544 9 25 C9.35294118 31.47058824 9.35294118 31.47058824 7 35 C0.88916378 35.66663668 0.88916378 35.66663668 -1.60864258 33.79394531 C-4.49868782 30.06766834 -5.36332689 25.21182756 -6.6875 20.75 C-7.16799805 19.21279297 -7.16799805 19.21279297 -7.65820312 17.64453125 C-9.2724093 12.2959675 -10.59734238 7.59535904 -10 2 C-7.03688004 -1.64691687 -4.27404321 -1.45499343 0 0 Z " fill="#48C3E4" transform="translate(212,875)"/>
<path d="M0 0 C2.68314603 2.10612538 3.60365013 4.12686378 4.5703125 7.3515625 C4.82683594 8.20363281 5.08335937 9.05570313 5.34765625 9.93359375 C5.60417969 10.82175781 5.86070312 11.70992187 6.125 12.625 C6.38925781 13.48996094 6.65351563 14.35492187 6.92578125 15.24609375 C8.52992638 20.67738716 10.10715246 26.29019783 10 32 C8.4375 34.625 8.4375 34.625 6 36 C3 36.3125 3 36.3125 0 35 C-1.94274777 32.24143645 -2.90467487 29.17179091 -4 26 C-4.44730469 24.80632813 -4.89460937 23.61265625 -5.35546875 22.3828125 C-7.84178373 15.57502474 -9.99415315 9.33187949 -9 2 C-5.53076119 -0.31282587 -4.07794425 -0.42478586 0 0 Z " fill="#48C3E4" transform="translate(230,544)"/>
<path d="M0 0 C3.5625 0.4375 3.5625 0.4375 5.0546875 2.3125 C7.17775685 6.71264372 8.71617687 11.24150925 10.25 15.875 C10.73049805 17.2681543 10.73049805 17.2681543 11.22070312 18.68945312 C14.17689111 27.54541075 14.17689111 27.54541075 13.5625 32.4375 C11.55049381 35.26921242 10.44178233 36.28737863 7 36.875 C4.06150786 36.34757833 3.42807348 35.7193765 1.5625 33.4375 C0.02969189 29.81273427 -1.00143574 26.01945253 -2.125 22.25 C-2.44533203 21.23357422 -2.76566406 20.21714844 -3.09570312 19.16992188 C-4.83752303 13.41708813 -6.02725808 8.45303244 -5.4375 2.4375 C-3.4375 0.4375 -3.4375 0.4375 0 0 Z " fill="#48C3E4" transform="translate(125.4375,543.5625)"/>
<path d="M0 0 C2.67727992 2.10892341 3.59988601 4.12217957 4.5703125 7.34375 C4.82683594 8.17777344 5.08335937 9.01179687 5.34765625 9.87109375 C5.73244141 11.17240234 5.73244141 11.17240234 6.125 12.5 C6.52138672 13.80130859 6.52138672 13.80130859 6.92578125 15.12890625 C7.4159982 16.73890812 7.90226923 18.35012055 8.38330078 19.96289062 C8.8942392 21.65064603 9.44236424 23.32709273 10 25 C10.3741835 28.56913488 10.60437566 31.82680019 8.9375 35.0625 C5.59636282 36.67917928 3.45755855 36.11135811 0 35 C-1.18959916 32.64471322 -2.12750214 30.47047708 -3 28 C-3.22655273 27.36368652 -3.45310547 26.72737305 -3.68652344 26.07177734 C-9 10.57998922 -9 10.57998922 -9 3 C-6.35591978 -0.43887814 -4.24486786 -0.53060848 0 0 Z " fill="#48C3E4" transform="translate(497,544)"/>
<path d="M0 0 C4.33647551 4.18312274 5.62829854 9.19032582 7.25 14.8125 C7.518125 15.67681641 7.78625 16.54113281 8.0625 17.43164062 C9.65147162 22.80252685 10.39512103 27.39931616 10 33 C8.8125 35 8.8125 35 7 36 C4.5625 36.5 4.5625 36.5 2 36 C-1.5297942 32.33205338 -3.15722968 28.4735247 -4.625 23.6875 C-4.83664795 23.02250488 -5.0482959 22.35750977 -5.26635742 21.67236328 C-9.66861131 7.6802792 -9.66861131 7.6802792 -9 3 C-6.74221069 -0.63754945 -4.02433879 -0.6570349 0 0 Z " fill="#48C3E4" transform="translate(179,544)"/>
<path d="M0 0 C0.67671753 -0.00287018 1.35343506 -0.00574036 2.05065918 -0.00869751 C3.47958209 -0.01073647 4.90853302 -0.00521819 6.33740234 0.00732422 C8.52374725 0.02338239 10.70824379 0.00747216 12.89453125 -0.01171875 C14.28385824 -0.00973629 15.67318409 -0.00589254 17.0625 0 C18.32642578 0.00338379 19.59035156 0.00676758 20.89257812 0.01025391 C24.03125 0.3984375 24.03125 0.3984375 25.94726562 1.70068359 C27.75667727 4.53461345 27.32679436 7.14744957 27.03125 10.3984375 C24.57551825 12.85416925 23.17879931 12.65309896 19.82458496 12.70198059 C19.11934692 12.70106918 18.41410889 12.70015778 17.6875 12.69921875 C16.96260376 12.70350388 16.23770752 12.707789 15.49084473 12.71220398 C13.95761154 12.71794917 12.4243511 12.71844614 10.89111328 12.71411133 C8.54021956 12.71094956 6.19058192 12.73441211 3.83984375 12.75976562 C2.35156409 12.76203837 0.86328104 12.76274223 -0.625 12.76171875 C-1.68285706 12.77553337 -1.68285706 12.77553337 -2.76208496 12.78962708 C-4.74414062 12.77075195 -4.74414062 12.77075195 -7.96875 12.3984375 C-10.28157587 8.92919869 -10.39353586 7.47638175 -9.96875 3.3984375 C-7.45639469 -0.45497234 -4.30427468 0.01152343 0 0 Z " fill="#E5C706" transform="translate(695.96875,792.6015625)"/>
<path d="M0 0 C3.29107755 2.1940517 3.49929824 2.66613638 4.5703125 6.24609375 C4.82683594 7.08333984 5.08335937 7.92058594 5.34765625 8.78320312 C5.60417969 9.65912109 5.86070312 10.53503906 6.125 11.4375 C6.38925781 12.30955078 6.65351562 13.18160156 6.92578125 14.08007812 C7.41663235 15.7008834 7.90295154 17.32307286 8.38330078 18.94702148 C8.89206701 20.64069338 9.44077128 22.32231385 10 24 C10.203125 26.15625 10.203125 26.15625 10.25 28.5 C10.27578125 29.2734375 10.3015625 30.046875 10.328125 30.84375 C9.91922381 33.53081499 9.13476993 34.36962679 7 36 C4.5625 36.5 4.5625 36.5 2 36 C-2.746023 31.53315482 -3.98675015 25.56164433 -5.75 19.5 C-6.06582031 18.46746094 -6.38164062 17.43492187 -6.70703125 16.37109375 C-9.31807493 7.61109871 -9.31807493 7.61109871 -9 3 C-6.72678821 -0.66239677 -4.03980218 -0.42081273 0 0 Z " fill="#47C3E4" transform="translate(506,882)"/>
<path d="M0 0 C3.5625 0.3125 3.5625 0.3125 5.26025391 1.41235352 C7.20839962 4.25495158 6.95142601 6.61022719 6.9609375 10.02734375 C6.96524277 11.00556847 6.96524277 11.00556847 6.96963501 12.0035553 C6.97167394 13.38120391 6.96615586 14.75888158 6.95361328 16.13647461 C6.93758056 18.2394327 6.9534517 20.34046165 6.97265625 22.44335938 C6.97067328 23.78385839 6.96682848 25.12435621 6.9609375 26.46484375 C6.95755371 27.68163818 6.95416992 28.89843262 6.95068359 30.15209961 C6.53469671 33.53886072 6.00434446 34.96352452 3.5625 37.3125 C0.50228124 37.7587819 -1.45473132 37.94764615 -4.10229492 36.23657227 C-6.16353661 33.26625855 -5.80890278 30.66485145 -5.80078125 27.08984375 C-5.80127975 26.3885585 -5.80177826 25.68727325 -5.80229187 24.96473694 C-5.7999542 23.48451906 -5.79024363 22.00429699 -5.77368164 20.52416992 C-5.75004879 18.25468565 -5.75312728 15.98637324 -5.75976562 13.71679688 C-5.70859877 0.51896352 -5.70859877 0.51896352 0 0 Z " fill="#E5C706" transform="translate(799.4375,875.6875)"/>
<path d="M0 0 C2.33524782 2.25740623 4.18705073 4.2805761 6 7 C8.6556728 7.58348752 8.6556728 7.58348752 11.625 7.6875 C12.62789062 7.75324219 13.63078125 7.81898437 14.6640625 7.88671875 C15.43492187 7.92410156 16.20578125 7.96148438 17 8 C16.61585938 8.46148438 16.23171875 8.92296875 15.8359375 9.3984375 C13.50004814 12.55875839 11.94781202 14.72949252 12.11328125 18.7578125 C12.62951917 21.22311197 13.22881596 23.60294386 14 26 C12.93072266 25.80470703 12.93072266 25.80470703 11.83984375 25.60546875 C4.93073375 24.57053919 4.93073375 24.57053919 -1.1875 27.4375 C-2.115625 28.283125 -3.04375 29.12875 -4 30 C-3.99097656 29.25234375 -3.98195312 28.5046875 -3.97265625 27.734375 C-3.9152397 22.0485631 -3.9152397 22.0485631 -6.625 17.37890625 C-8.75540342 16.14827286 -8.75540342 16.14827286 -12 15 C-12 14.34 -12 13.68 -12 13 C-5.375 10 -5.375 10 -2 10 C-1.93941406 9.36191406 -1.87882813 8.72382812 -1.81640625 8.06640625 C-1.73261719 7.24011719 -1.64882812 6.41382813 -1.5625 5.5625 C-1.48128906 4.73878906 -1.40007812 3.91507813 -1.31640625 3.06640625 C-1 1 -1 1 0 0 Z " fill="#4AC4E4" transform="translate(242,1046)"/>
<path d="M0 0 C4.98697028 1.85789089 6.62361571 5.70585775 9.1875 10.1875 C9.67863281 10.98671875 10.16976563 11.7859375 10.67578125 12.609375 C13.10745994 16.69185528 14.60061632 19.3192077 14.1875 24.1875 C13.125 26 13.125 26 11.1875 27.1875 C7.875 27.9375 7.875 27.9375 4.1875 27.1875 C1.63702342 24.50116268 -0.0257083 21.41351569 -1.8125 18.1875 C-2.56466797 17.02154297 -2.56466797 17.02154297 -3.33203125 15.83203125 C-5.72960048 11.99459951 -6.8125 9.86683232 -6.8125 5.25 C-5.51290905 1.27000272 -4.17998763 0.27866584 0 0 Z " fill="#E6C80D" transform="translate(400.8125,78.8125)"/>
<path d="M0 0 C2 3 2 3 2.1875 5.8125 C0.32766806 10.80468047 -3.52024924 12.42637975 -8 15 C-9.18142578 15.75410156 -9.18142578 15.75410156 -10.38671875 16.5234375 C-13.99786754 18.74285322 -16.12887166 20.0158387 -20.4375 19.9375 C-23 19 -23 19 -25 17 C-25.6875 13.75 -25.6875 13.75 -25 10 C-22.32012435 7.44362092 -19.22520161 5.7863408 -16 4 C-15.22269531 3.49855469 -14.44539063 2.99710938 -13.64453125 2.48046875 C-8.81754626 -0.53535836 -5.71530541 -1.86622218 0 0 Z " fill="#E6C80C" transform="translate(394,777)"/>
<path d="M0 0 C2.3125 1.6875 2.3125 1.6875 4 4 C4.31640625 6.4609375 4.31640625 6.4609375 4 9 C2.6015625 10.58984375 2.6015625 10.58984375 0.625 11.9375 C-0.10203125 12.43378906 -0.8290625 12.93007812 -1.578125 13.44140625 C-2.37734375 13.95574219 -3.1765625 14.47007812 -4 15 C-5.26070313 15.84884766 -5.26070313 15.84884766 -6.546875 16.71484375 C-10.22263215 19.08180858 -13.09053119 20.85117783 -17.4375 21.5625 C-20 21 -20 21 -21.875 19.875 C-23.66128008 16.89786653 -23.73614093 15.41301706 -23 12 C-20.6422383 9.52722554 -17.88211747 7.81002547 -15 6 C-13.72189453 5.15308594 -13.72189453 5.15308594 -12.41796875 4.2890625 C-4.83235695 -0.55572105 -4.83235695 -0.55572105 0 0 Z " fill="#E6C80C" transform="translate(392,165)"/>
<path d="M0 0 C2.90041833 1.36572747 5.59393136 2.99303274 8.3125 4.6875 C9.40401367 5.32075195 9.40401367 5.32075195 10.51757812 5.96679688 C15.72432981 9.18401623 15.72432981 9.18401623 17.07421875 13.1796875 C17 16 17 16 15.5 18.4375 C11.92297349 20.67314157 10.07353915 19.92919834 6 19 C3.23577708 17.72921572 0.69503196 16.1852771 -1.875 14.5625 C-2.55046875 14.15451172 -3.2259375 13.74652344 -3.921875 13.32617188 C-8.85498436 10.29003127 -8.85498436 10.29003127 -10 8 C-10.3125 5.0625 -10.3125 5.0625 -10 2 C-6.88364526 -1.71565372 -4.43763758 -1.13126335 0 0 Z " fill="#E6C80B" transform="translate(379,716)"/>
<path d="M0 0 C3.68490348 0.70863528 4.06448585 1.1473289 6.25 4 C7.26993564 5.52855075 8.26864552 7.0713979 9.25 8.625 C9.82621094 9.45386719 10.40242188 10.28273438 10.99609375 11.13671875 C15.75990695 18.32094513 15.75990695 18.32094513 15.3125 22.625 C14.25 25.625 14.25 25.625 11.25 27.625 C8.74609375 27.9609375 8.74609375 27.9609375 6.25 27.625 C3.71638656 25.39641619 2.07479503 22.44887031 0.25 19.625 C-0.3275 18.79613281 -0.905 17.96726562 -1.5 17.11328125 C-4.21411367 13.0106974 -5.75 10.634245 -5.75 5.625 C-4.51012212 1.90536635 -3.85159862 0.87536332 0 0 Z " fill="#E6C80B" transform="translate(399.75,689.375)"/>
<path d="M0 0 C2.9375 0.8125 2.9375 0.8125 4.9375 2.8125 C5.73215462 9.06845745 3.83818887 12.57581699 0.5625 17.625 C0.15 18.29208984 -0.2625 18.95917969 -0.6875 19.64648438 C-2.32100317 22.25745476 -3.87855805 24.62855805 -6.0625 26.8125 C-9.5625 27.125 -9.5625 27.125 -13.0625 26.8125 C-15.44570989 23.23768516 -15.56806901 22.03224928 -15.0625 17.8125 C-13.87319681 15.08613992 -12.34758305 12.62911854 -10.75 10.125 C-10.34587891 9.46177734 -9.94175781 8.79855469 -9.52539062 8.11523438 C-4.33496384 -0.26540595 -4.33496384 -0.26540595 0 0 Z " fill="#E6C80B" transform="translate(470.0625,79.1875)"/>
<path d="M0 0 C2.72914396 1.18262905 5.18361203 2.71506406 7.6875 4.3125 C8.68233398 4.91868164 8.68233398 4.91868164 9.69726562 5.53710938 C12.78583775 7.44997127 15.6000414 9.23150342 18 12 C18.42317323 14.82115488 18.38718434 16.33950907 16.9375 18.8125 C13.86689874 20.69448141 11.55460598 20.31955549 8 20 C5.20370576 18.82606911 2.72727395 17.27269415 0.1875 15.625 C-0.47958984 15.2125 -1.14667969 14.8 -1.83398438 14.375 C-4.44495476 12.74149683 -6.81605805 11.18394195 -9 9 C-9.33015665 5.89652746 -9.50531294 3.84218824 -7.875 1.125 C-5.06494041 -0.56103575 -3.25933988 -0.32934096 0 0 Z " fill="#E6C80A" transform="translate(378,105)"/>
<path d="M0 0 C1.8125 1.125 1.8125 1.125 3 3 C3.76632009 8.79964981 1.53459002 12.42981039 -1.3125 17.25 C-1.71662109 17.96929688 -2.12074219 18.68859375 -2.53710938 19.4296875 C-4.51797165 22.86962394 -5.61532884 24.74355256 -9 27 C-11.83079592 27.35384949 -13.36830089 27.3920891 -15.8125 25.875 C-17.59264466 23.06424527 -17.33497636 21.31169811 -17 18 C-15.81279317 15.09809988 -14.2801035 12.44631476 -12.6875 9.75 C-12.08131836 8.67105469 -12.08131836 8.67105469 -11.46289062 7.5703125 C-8.56695313 2.54126983 -6.40362296 -0.80045287 0 0 Z " fill="#E6C809" transform="translate(472,690)"/>
<path d="M0 0 C2.24372139 1.63404676 2.91922198 2.54085871 3.40405273 5.29663086 C3.43595226 8.17786999 3.45780471 11.05607725 3.4375 13.9375 C3.45748047 14.93974609 3.47746094 15.94199219 3.49804688 16.97460938 C3.49316245 24.29636655 3.49316245 24.29636655 1.1328125 27.6640625 C-1.52581808 29.32935857 -2.91810542 29.55316057 -6 29 C-7.62744141 27.81469727 -7.62744141 27.81469727 -9 26 C-9.38818359 23.48803711 -9.38818359 23.48803711 -9.3984375 20.52734375 C-9.40230469 19.46322266 -9.40617187 18.39910156 -9.41015625 17.30273438 C-9.39855469 16.19220703 -9.38695312 15.08167969 -9.375 13.9375 C-9.38660156 12.82310547 -9.39820313 11.70871094 -9.41015625 10.56054688 C-9.40628906 9.49771484 -9.40242188 8.43488281 -9.3984375 7.33984375 C-9.39505371 6.36394287 -9.39166992 5.38804199 -9.38818359 4.38256836 C-9.26008301 3.5963208 -9.13198242 2.81007324 -9 2 C-5.53076119 -0.31282587 -4.07794425 -0.42478586 0 0 Z " fill="#E5C708" transform="translate(438,681)"/>
<path d="M0 0 C1.00224609 -0.02449219 2.00449219 -0.04898438 3.03710938 -0.07421875 C10.35699296 -0.10351782 10.35699296 -0.10351782 13.7578125 2.203125 C15.0625 4.375 15.0625 4.375 15 7.5 C14.0625 10.375 14.0625 10.375 11.0625 12.375 C7.41012211 12.80879699 3.73786522 12.69921991 0.0625 12.6875 C-0.948125 12.70361328 -1.95875 12.71972656 -3 12.73632812 C-4.4540625 12.73729492 -4.4540625 12.73729492 -5.9375 12.73828125 C-6.824375 12.74126221 -7.71125 12.74424316 -8.625 12.74731445 C-10.9375 12.375 -10.9375 12.375 -12.7265625 11.07495117 C-14.74159811 8.24618243 -14.30172085 5.71369108 -13.9375 2.375 C-9.478244 -0.59783733 -5.24661565 0.00672212 0 0 Z " fill="#E5C708" transform="translate(373.9375,749.625)"/>
<path d="M0 0 C3.4375 0.875 3.4375 0.875 5.4375 3.875 C5.86910204 7.33970938 5.76173071 10.82378591 5.75 14.3125 C5.76611328 15.26705078 5.78222656 16.22160156 5.79882812 17.20507812 C5.79947266 18.12611328 5.80011719 19.04714844 5.80078125 19.99609375 C5.80525269 21.25570923 5.80525269 21.25570923 5.80981445 22.54077148 C5.34849188 25.43303712 4.48663461 26.7987908 2.4375 28.875 C-1.125 29.3125 -1.125 29.3125 -4.5625 28.875 C-7.61093621 24.30234569 -6.89137593 19.75285396 -6.875 14.375 C-6.89111328 13.31667969 -6.90722656 12.25835937 -6.92382812 11.16796875 C-6.92447266 10.15347656 -6.92511719 9.13898438 -6.92578125 8.09375 C-6.92876221 7.16498047 -6.93174316 6.23621094 -6.93481445 5.27929688 C-6.5625 2.875 -6.5625 2.875 -5.26245117 1.04101562 C-3.5625 -0.125 -3.5625 -0.125 0 0 Z " fill="#E5C708" transform="translate(435.5625,70.125)"/>
<path d="M0 0 C1.50336914 -0.0299707 1.50336914 -0.0299707 3.03710938 -0.06054688 C10.33587772 -0.05567778 10.33587772 -0.05567778 13.76171875 2.26953125 C15.0625 4.4375 15.0625 4.4375 14.9375 7.5625 C14.0625 10.4375 14.0625 10.4375 12.0625 12.4375 C9.6640625 12.69628906 9.6640625 12.69628906 6.6875 12.703125 C5.62015625 12.70570313 4.5528125 12.70828125 3.453125 12.7109375 C1.77476562 12.69933594 1.77476562 12.69933594 0.0625 12.6875 C-1.05640625 12.69523438 -2.1753125 12.70296875 -3.328125 12.7109375 C-4.39546875 12.70835937 -5.4628125 12.70578125 -6.5625 12.703125 C-7.54476563 12.70086914 -8.52703125 12.69861328 -9.5390625 12.69628906 C-11.9375 12.4375 -11.9375 12.4375 -13.9375 10.4375 C-14.50191688 4.22891434 -14.50191688 4.22891434 -12.72827148 1.74194336 C-9.11581649 -0.88946046 -4.3030287 -0.03032243 0 0 Z " fill="#E6C80B" transform="translate(373.9375,138.5625)"/>
<path d="M0 0 C2.4375 0.4375 2.4375 0.4375 4.078125 1.453125 C6.23128915 4.59624968 5.74983709 7.9599111 5.625 11.625 C5.61146484 12.37458984 5.59792969 13.12417969 5.58398438 13.89648438 C5.54868539 15.74379767 5.49487917 17.59074066 5.4375 19.4375 C1.4775 19.4375 -2.4825 19.4375 -6.5625 19.4375 C-6.67076289 17.0196288 -6.74989789 14.60662444 -6.8125 12.1875 C-6.84601563 11.50558594 -6.87953125 10.82367187 -6.9140625 10.12109375 C-6.98171178 6.63715577 -6.83425789 4.79736466 -4.70703125 1.98046875 C-2.5625 0.4375 -2.5625 0.4375 0 0 Z " fill="#3892A7" transform="translate(1109.5625,986.5625)"/>
</svg>
